<svg xmlns="http://www.w3.org/2000/svg" xmlns:xlink="http://www.w3.org/1999/xlink" width="60" zoomAndPan="magnify" viewBox="0 0 45 44.999999" height="60" preserveAspectRatio="xMidYMid meet" version="1.0"><defs><clipPath id="83cdc84615"><path d="M 0 2.53125 L 45 2.53125 L 45 42 L 0 42 Z M 0 2.53125 " clip-rule="nonzero"/></clipPath></defs><rect x="-4.5" width="54" fill="#ffffff" y="-4.5" height="53.999999" fill-opacity="1"/><rect x="-4.5" width="54" fill="#ffffff" y="-4.5" height="53.999999" fill-opacity="1"/><g clip-path="url(#83cdc84615)"><path fill="#0857de" d="M 44.40625 30.289062 C 44.128906 30.320312 43.996094 30.507812 43.605469 30.761719 C 43.386719 30.902344 43.160156 31.019531 42.917969 31.117188 C 43.121094 30.023438 42.90625 29.269531 42.75 28.878906 C 42.640625 28.613281 42.460938 28.183594 42.160156 28.148438 C 42.046875 28.136719 41.859375 28.101562 41.464844 28.613281 C 41.03125 29.175781 40.519531 29.574219 39.832031 29.765625 C 39.601562 29.828125 39.398438 29.941406 39.226562 30.113281 C 38.949219 30.398438 38.667969 30.40625 38.308594 30.308594 C 37.226562 30.023438 36.246094 29.53125 35.371094 28.835938 C 34.726562 28.332031 34.109375 27.789062 33.414062 27.367188 C 32.816406 27.015625 32.433594 26.503906 32.269531 25.832031 C 32.023438 24.898438 31.710938 23.980469 31.492188 23.042969 C 31.355469 22.472656 31.21875 21.859375 31.300781 21.296875 C 31.488281 19.921875 31.261719 18.617188 30.835938 17.332031 C 30.546875 16.464844 29.410156 15.585938 28.582031 15.550781 C 27.953125 15.535156 27.332031 15.464844 26.714844 15.347656 C 26.183594 15.257812 25.914062 15.207031 25.765625 15.128906 C 24.773438 14.632812 24.175781 13.011719 24.660156 12.023438 C 24.886719 11.554688 25.21875 11.523438 25.578125 10.832031 C 25.769531 10.457031 25.890625 10.058594 25.9375 9.640625 C 25.980469 9.605469 26.019531 9.566406 26.054688 9.523438 C 26.421875 9.125 26.453125 8.609375 26.46875 8.242188 C 26.476562 8.09375 26.511719 7.328125 26.289062 7.269531 C 26.226562 7.261719 26.171875 7.28125 26.128906 7.328125 C 26.121094 7.046875 26.046875 4.734375 24.832031 3.5625 C 24.277344 3.039062 23.625 2.738281 22.867188 2.660156 C 21.65625 2.535156 20.777344 3.136719 20.554688 3.292969 C 18.972656 4.410156 18.972656 7.105469 18.976562 7.304688 C 18.929688 7.261719 18.878906 7.242188 18.816406 7.25 C 18.59375 7.308594 18.628906 8.074219 18.632812 8.21875 C 18.652344 8.589844 18.679688 9.101562 19.046875 9.503906 C 19.082031 9.542969 19.125 9.582031 19.164062 9.617188 C 19.203125 10.039062 19.320312 10.4375 19.527344 10.808594 C 19.914062 11.507812 20.3125 11.511719 20.550781 11.972656 C 21.132812 13.089844 19.804688 15.070312 18.886719 15.460938 C 18.507812 15.609375 18.117188 15.714844 17.714844 15.78125 C 17.242188 15.851562 17.230469 15.808594 16.828125 15.84375 C 15.832031 15.933594 15.023438 16.433594 14.671875 17.324219 C 14.183594 18.539062 13.914062 19.832031 14.164062 21.167969 C 14.320312 21.976562 14.390625 22.761719 14.101562 23.578125 C 13.878906 24.191406 13.773438 24.855469 13.675781 25.507812 C 13.503906 26.632812 13.246094 27.679688 12.097656 28.234375 C 11.902344 28.332031 11.75 28.511719 11.570312 28.636719 C 10.183594 29.59375 8.796875 30.550781 7.152344 31.027344 C 6.777344 31.136719 6.453125 31.179688 6.128906 30.847656 C 5.9375 30.65625 5.601562 30.617188 5.367188 30.457031 C 4.828125 30.089844 4.238281 29.761719 3.808594 29.292969 C 3.4375 28.886719 3.125 28.628906 2.546875 28.808594 C 2.320312 29.679688 2.285156 30.5625 2.441406 31.449219 C 2.320312 31.425781 2.132812 31.382812 1.910156 31.316406 C 1.636719 31.234375 1.5625 31.195312 1.214844 31.078125 C 0.609375 30.875 0.464844 30.882812 0.339844 30.921875 C 0.207031 30.972656 0.09375 31.050781 0.00390625 31.164062 C 0.109375 31.230469 0.222656 31.292969 0.339844 31.351562 C 0.949219 31.664062 1.585938 31.878906 2.257812 32 C 2.039062 32.074219 1.8125 32.105469 1.582031 32.097656 C 1.269531 32.082031 1.074219 31.992188 0.917969 32.105469 C 0.816406 32.191406 0.761719 32.300781 0.753906 32.433594 C 1.136719 32.519531 1.527344 32.574219 1.917969 32.597656 C 2.300781 32.617188 2.492188 32.597656 2.957031 32.609375 C 3.421875 32.625 3.796875 32.664062 4.039062 32.691406 C 3.992188 32.746094 3.941406 32.789062 3.882812 32.828125 C 3.742188 32.917969 3.644531 32.898438 3.472656 32.9375 C 3.324219 32.972656 3.054688 33.039062 2.988281 33.214844 C 2.953125 33.320312 2.96875 33.421875 3.027344 33.511719 C 3.238281 33.492188 3.445312 33.460938 3.652344 33.421875 C 4.144531 33.324219 4.613281 33.167969 5.066406 32.957031 C 5.078125 33.097656 5.046875 33.230469 4.96875 33.351562 C 4.890625 33.488281 4.53125 34.421875 4.609375 35.203125 C 4.660156 35.734375 4.910156 36.257812 5.597656 36.992188 C 7.066406 38.5625 9.066406 39.53125 10.15625 39.996094 C 9.65625 40.4375 9.125 41.007812 9.273438 41.394531 C 9.691406 42.46875 14.742188 40.394531 21.480469 40.429688 C 28.070312 40.464844 33.039062 42.179688 33.363281 41.242188 C 33.503906 40.824219 32.652344 40.164062 32.117188 39.789062 C 36.417969 39.320312 39.515625 37.335938 39.855469 34.988281 C 39.921875 34.527344 39.90625 33.894531 39.570312 33.097656 C 39.449219 32.832031 39.296875 32.582031 39.113281 32.355469 C 39.550781 32.386719 40.074219 32.410156 40.265625 32.671875 C 40.394531 32.839844 40.535156 32.988281 40.695312 33.125 C 40.910156 33.328125 41.277344 33.5625 41.925781 33.644531 L 42.257812 33.683594 C 42.289062 33.585938 42.285156 33.488281 42.246094 33.390625 C 42.210938 33.328125 42.160156 33.277344 42.097656 33.238281 C 41.910156 33.121094 41.769531 33.195312 41.589844 33.085938 C 41.527344 33.050781 41.476562 33 41.433594 32.941406 C 41.769531 32.988281 42.105469 33.003906 42.445312 32.984375 C 42.671875 32.972656 42.625 32.960938 43.042969 32.925781 C 43.382812 32.910156 43.71875 32.875 44.050781 32.816406 C 44.222656 32.789062 44.375 32.683594 44.539062 32.613281 C 44.507812 32.484375 44.4375 32.382812 44.328125 32.3125 C 44.171875 32.222656 43.988281 32.277344 43.914062 32.296875 C 43.679688 32.363281 43.316406 32.402344 42.746094 32.296875 C 43.03125 32.117188 43.261719 31.960938 43.429688 31.84375 C 43.847656 31.550781 44.242188 31.230469 44.609375 30.875 C 44.777344 30.710938 44.910156 30.566406 45 30.472656 C 44.824219 30.339844 44.625 30.277344 44.40625 30.289062 Z M 3.644531 31.675781 C 3.21875 31.167969 3.039062 30.585938 3.101562 29.929688 C 3.910156 30.519531 4.03125 30.902344 3.644531 31.675781 Z M 17.585938 28.539062 C 17.558594 29.933594 17.300781 29.6875 16.867188 32.144531 C 16.820312 32.398438 16.746094 32.839844 16.398438 33.089844 C 16.050781 33.339844 15.597656 33.253906 15.414062 33.238281 C 13.378906 33.078125 11.359375 32.679688 9.332031 32.375 C 9.292969 32.371094 9.261719 32.316406 9.171875 32.238281 C 9.839844 32.078125 10.453125 31.914062 11.078125 31.789062 C 12.253906 31.539062 13.308594 31 14.355469 30.429688 C 14.679688 30.25 15.015625 30.082031 15.355469 29.929688 C 15.585938 29.824219 15.753906 29.628906 15.867188 29.511719 C 16.753906 28.636719 16.660156 27.0625 17.003906 25.605469 C 17.003906 25.585938 17.019531 25.546875 17.03125 25.496094 C 17.140625 24.992188 17.164062 24.484375 17.105469 23.972656 C 17.207031 24.597656 17.324219 25.390625 17.425781 26.316406 C 17.539062 27.398438 17.601562 27.941406 17.585938 28.539062 Z M 36.398438 31.835938 C 34.882812 32.230469 33.367188 32.632812 31.847656 33.011719 C 30.960938 33.234375 30.0625 33.421875 29.167969 33.625 C 28.960938 33.671875 28.800781 33.660156 28.6875 33.578125 C 28.496094 33.4375 28.488281 33.148438 28.480469 33.066406 C 28.429688 32.070312 27.355469 30.632812 27.34375 27.96875 C 27.347656 26.445312 27.664062 24.996094 28.292969 23.609375 C 28.390625 24.15625 28.441406 24.71875 28.597656 25.25 C 28.8125 25.941406 29.066406 26.621094 29.351562 27.289062 C 29.542969 27.757812 29.773438 28.210938 30.039062 28.648438 C 30.214844 28.914062 30.433594 29.132812 30.703125 29.308594 C 32.441406 30.472656 34.328125 31.292969 36.402344 31.679688 Z M 41.761719 31.195312 C 41.171875 30.472656 41.316406 29.769531 42.132812 29.238281 C 42.246094 29.9375 42.160156 30.574219 41.761719 31.195312 Z M 41.761719 31.195312 " fill-opacity="1" fill-rule="nonzero"/></g></svg>