<svg xmlns="http://www.w3.org/2000/svg" xmlns:xlink="http://www.w3.org/1999/xlink" width="60" zoomAndPan="magnify" viewBox="0 0 45 44.999999" height="60" preserveAspectRatio="xMidYMid meet" version="1.0"><defs><clipPath id="1e2e837d37"><path d="M 0 26 L 45 26 L 45 40.425781 L 0 40.425781 Z M 0 26 " clip-rule="nonzero"/></clipPath><clipPath id="90f977ec9b"><path d="M 3 7.425781 L 40 7.425781 L 40 27 L 3 27 Z M 3 7.425781 " clip-rule="nonzero"/></clipPath><clipPath id="47764a1867"><path d="M 0 7.425781 L 45 7.425781 L 45 40.425781 L 0 40.425781 Z M 0 7.425781 " clip-rule="nonzero"/></clipPath><clipPath id="468775f533"><path d="M 18 17 L 23.539062 17 L 23.539062 25 L 18 25 Z M 18 17 " clip-rule="nonzero"/></clipPath><clipPath id="db129d4017"><path d="M 8 22 L 14 22 L 14 28.351562 L 8 28.351562 Z M 8 22 " clip-rule="nonzero"/></clipPath><clipPath id="caf53c0880"><path d="M 7.039062 10.351562 L 16 10.351562 L 16 19 L 7.039062 19 Z M 7.039062 10.351562 " clip-rule="nonzero"/></clipPath><clipPath id="a718b50e0a"><path d="M 27 14 L 35.886719 14 L 35.886719 25 L 27 25 Z M 27 14 " clip-rule="nonzero"/></clipPath><clipPath id="54ca1696e6"><path d="M 33 14 L 35.886719 14 L 35.886719 17 L 33 17 Z M 33 14 " clip-rule="nonzero"/></clipPath><clipPath id="717122e6b7"><path d="M 26 13.890625 L 34 13.890625 L 34 25 L 26 25 Z M 26 13.890625 " clip-rule="nonzero"/></clipPath><clipPath id="b69da559a3"><path d="M 25.386719 17 L 29 17 L 29 21 L 25.386719 21 Z M 25.386719 17 " clip-rule="nonzero"/></clipPath></defs><rect x="-4.5" width="54" fill="#ffffff" y="-4.5" height="53.999999" fill-opacity="1"/><rect x="-4.5" width="54" fill="#ffffff" y="-4.5" height="53.999999" fill-opacity="1"/><g clip-path="url(#1e2e837d37)"><path fill="#0857de" d="M 44.761719 36.886719 C 44.753906 36.488281 44.640625 36.101562 44.433594 35.765625 C 44.386719 35.6875 44.332031 35.609375 44.277344 35.539062 L 41.054688 31.457031 C 40.789062 31.113281 40.375 30.914062 39.941406 30.914062 L 39.984375 30.914062 L 39.984375 26.054688 L 37.75 26.054688 L 37.75 27.890625 C 37.75 28.59375 37.179688 29.164062 36.480469 29.164062 L 7.203125 29.164062 C 6.5 29.164062 5.929688 28.59375 5.929688 27.890625 L 5.929688 26.054688 L 3.929688 26.054688 L 3.929688 30.914062 L 0.710938 35.097656 C 0.492188 35.378906 0.339844 35.707031 0.269531 36.054688 C 0.207031 36.355469 0.203125 36.671875 0.265625 36.980469 C 0.769531 39.527344 2.632812 40.28125 5.046875 40.296875 L 39.984375 40.296875 C 44.003906 40.15625 44.800781 38.691406 44.761719 36.886719 Z M 12.226562 30.914062 L 37.675781 30.914062 L 38.773438 32.417969 L 39.722656 33.714844 L 40.273438 34.464844 C 40.519531 34.800781 40.28125 35.265625 39.867188 35.265625 L 4.832031 35.265625 C 4.511719 35.265625 4.316406 34.910156 4.488281 34.640625 L 5.074219 33.714844 L 5.898438 32.417969 L 6.851562 30.914062 Z M 12.226562 30.914062 " fill-opacity="1" fill-rule="nonzero"/></g><path fill="#0857de" d="M 29.441406 23.867188 C 29.441406 24.65625 30.082031 25.300781 30.871094 25.300781 C 31.664062 25.300781 32.304688 24.65625 32.304688 23.867188 C 32.304688 23.078125 31.664062 22.433594 30.871094 22.433594 C 30.082031 22.433594 29.441406 23.078125 29.441406 23.867188 Z M 29.441406 23.867188 " fill-opacity="1" fill-rule="nonzero"/><path fill="#0857de" d="M 10.027344 23.867188 C 10.027344 24.65625 10.667969 25.300781 11.457031 25.300781 C 12.25 25.300781 12.890625 24.65625 12.890625 23.867188 C 12.890625 23.078125 12.25 22.433594 11.457031 22.433594 C 10.667969 22.433594 10.027344 23.078125 10.027344 23.867188 Z M 10.027344 23.867188 " fill-opacity="1" fill-rule="nonzero"/><path fill="#0857de" d="M 20.679688 25.144531 C 21.410156 25.5 22.269531 25.480469 22.980469 25.089844 C 23.5625 24.769531 24.023438 24.359375 24.378906 23.867188 C 22.609375 22.484375 20.84375 22.484375 19.078125 23.867188 C 19.523438 24.429688 20.0625 24.84375 20.679688 25.144531 Z M 20.679688 25.144531 " fill-opacity="1" fill-rule="nonzero"/><path fill="#0857de" d="M 40.273438 34.464844 L 39.722656 33.714844 L 38.773438 32.417969 L 37.675781 30.914062 L 6.851562 30.914062 L 5.898438 32.417969 L 5.074219 33.714844 L 4.488281 34.640625 C 4.316406 34.910156 4.511719 35.265625 4.832031 35.265625 L 39.867188 35.265625 C 40.28125 35.265625 40.515625 34.800781 40.273438 34.464844 Z M 40.273438 34.464844 " fill-opacity="1" fill-rule="nonzero"/><g clip-path="url(#90f977ec9b)"><path fill="#0857de" d="M 5.929688 10.824219 C 5.929688 10.121094 6.5 9.550781 7.203125 9.550781 L 36.480469 9.550781 C 37.179688 9.550781 37.75 10.121094 37.75 10.824219 L 37.75 26.054688 L 39.984375 26.054688 L 39.984375 10.078125 C 39.984375 8.726562 38.886719 7.628906 37.53125 7.628906 L 6.757812 7.628906 C 5.195312 7.628906 3.929688 8.894531 3.929688 10.457031 L 3.929688 26.054688 L 5.929688 26.054688 Z M 5.929688 10.824219 " fill-opacity="1" fill-rule="nonzero"/></g><path fill="#96cad7" d="M 37.75 26.054688 L 37.75 27.890625 C 37.75 28.59375 37.179688 29.164062 36.480469 29.164062 L 7.203125 29.164062 C 6.5 29.164062 5.929688 28.59375 5.929688 27.890625 L 5.929688 10.824219 C 5.929688 10.121094 6.5 9.550781 7.203125 9.550781 L 36.480469 9.550781 C 37.179688 9.550781 37.75 10.121094 37.75 10.824219 Z M 37.75 26.054688 " fill-opacity="1" fill-rule="nonzero"/><g clip-path="url(#47764a1867)"><path fill="#ffffff" d="M 44.964844 36.878906 C 44.953125 36.449219 44.828125 36.027344 44.605469 35.660156 C 44.550781 35.566406 44.492188 35.488281 44.433594 35.414062 L 41.214844 31.332031 C 40.957031 31.003906 40.589844 30.792969 40.183594 30.734375 L 40.183594 10.078125 C 40.183594 8.617188 38.996094 7.425781 37.53125 7.425781 L 6.757812 7.425781 C 5.089844 7.425781 3.730469 8.785156 3.730469 10.457031 L 3.730469 30.847656 L 0.550781 34.972656 C 0.316406 35.277344 0.148438 35.636719 0.0703125 36.011719 L 0.175781 36.035156 L 0.171875 36.035156 L 0.0703125 36.011719 C 0 36.347656 0 36.6875 0.0664062 37.019531 C 0.53125 39.371094 2.117188 40.476562 5.046875 40.496094 L 39.992188 40.496094 C 44.464844 40.339844 45 38.480469 44.964844 36.878906 Z M 4.132812 26.257812 L 5.730469 26.257812 L 5.730469 27.890625 C 5.730469 28.703125 6.390625 29.363281 7.203125 29.363281 L 36.480469 29.363281 C 37.289062 29.363281 37.953125 28.703125 37.953125 27.890625 L 37.953125 26.257812 L 39.75 26.257812 L 39.75 25.855469 L 37.953125 25.855469 L 37.953125 10.824219 C 37.953125 10.011719 37.289062 9.347656 36.480469 9.347656 L 7.203125 9.347656 C 6.390625 9.347656 5.730469 10.011719 5.730469 10.824219 L 5.730469 25.855469 L 4.132812 25.855469 L 4.132812 10.457031 C 4.132812 9.007812 5.308594 7.828125 6.757812 7.828125 L 37.53125 7.828125 C 38.773438 7.828125 39.78125 8.839844 39.78125 10.078125 L 39.78125 30.714844 L 4.132812 30.714844 Z M 6.132812 27.890625 L 6.132812 10.824219 C 6.132812 10.230469 6.613281 9.75 7.203125 9.75 L 36.480469 9.75 C 37.070312 9.75 37.550781 10.230469 37.550781 10.824219 L 37.550781 27.890625 C 37.550781 28.480469 37.070312 28.964844 36.480469 28.964844 L 7.203125 28.964844 C 6.613281 28.964844 6.132812 28.484375 6.132812 27.890625 Z M 11.785156 32.214844 L 12.347656 31.117188 L 15.5625 31.117188 L 15.222656 32.214844 Z M 12.625 32.617188 L 12.277344 33.511719 L 8.742188 33.511719 L 9.167969 32.617188 Z M 11.335938 32.214844 L 6.261719 32.214844 L 6.960938 31.117188 L 11.894531 31.117188 Z M 8.722656 32.617188 L 8.296875 33.511719 L 5.441406 33.511719 L 6.007812 32.617188 Z M 9.636719 33.914062 L 9.066406 35.066406 L 4.832031 35.066406 C 4.722656 35.066406 4.667969 34.992188 4.652344 34.957031 C 4.632812 34.925781 4.597656 34.839844 4.65625 34.746094 L 5.183594 33.914062 Z M 10.085938 33.914062 L 13.777344 33.914062 L 13.351562 35.066406 L 9.515625 35.066406 Z M 12.710938 33.511719 L 13.054688 32.617188 L 16.492188 32.617188 L 16.253906 33.511719 Z M 15.644531 32.214844 L 15.980469 31.117188 L 18.996094 31.117188 L 18.742188 32.214844 Z M 14.207031 33.914062 L 17.46875 33.914062 L 17.242188 35.066406 L 13.78125 35.066406 Z M 16.671875 33.511719 L 16.910156 32.617188 L 20.058594 32.617188 L 19.953125 33.511719 Z M 19.15625 32.214844 L 19.410156 31.117188 L 22.289062 31.117188 L 22.289062 32.214844 Z M 17.878906 33.914062 L 21.390625 33.914062 L 21.390625 35.066406 L 17.652344 35.066406 Z M 20.359375 33.511719 L 20.464844 32.617188 L 23.792969 32.617188 L 23.898438 33.511719 Z M 22.691406 32.214844 L 22.691406 31.117188 L 26.023438 31.117188 L 26.195312 32.214844 Z M 21.792969 33.914062 L 25.574219 33.914062 L 25.574219 35.066406 L 21.792969 35.066406 Z M 24.304688 33.511719 L 24.199219 32.617188 L 27.5 32.617188 L 27.738281 33.511719 Z M 26.433594 31.117188 L 29.574219 31.117188 L 29.886719 32.214844 L 26.601562 32.214844 Z M 25.976562 33.914062 L 29.011719 33.914062 L 29.441406 35.066406 L 25.976562 35.066406 Z M 28.15625 33.511719 L 27.917969 32.617188 L 31.019531 32.617188 L 31.417969 33.511719 Z M 30.304688 32.214844 L 29.992188 31.117188 L 33.183594 31.117188 L 33.832031 32.214844 Z M 34.53125 32.617188 L 35.113281 33.511719 L 31.855469 33.511719 L 31.457031 32.617188 Z M 32.6875 33.914062 L 33.429688 35.066406 L 29.867188 35.066406 L 29.441406 33.914062 Z M 33.167969 33.914062 L 35.804688 33.914062 L 36.628906 35.066406 L 33.90625 35.066406 Z M 36.300781 33.914062 L 39.621094 33.914062 L 40.113281 34.585938 C 40.179688 34.679688 40.191406 34.796875 40.136719 34.902344 C 40.085938 35.003906 39.984375 35.066406 39.867188 35.066406 L 37.125 35.066406 Z M 35.59375 33.511719 L 35.011719 32.617188 L 38.671875 32.617188 L 39.328125 33.511719 Z M 34.296875 32.214844 L 33.648438 31.117188 L 37.570312 31.117188 L 38.378906 32.214844 Z M 0.867188 35.21875 L 4.03125 31.117188 L 6.484375 31.117188 L 5.789062 32.214844 L 5.769531 32.214844 L 5.769531 32.242188 L 4.90625 33.605469 L 5.074219 33.714844 L 4.902344 33.605469 L 4.316406 34.53125 C 4.195312 34.722656 4.1875 34.953125 4.296875 35.152344 C 4.40625 35.351562 4.605469 35.46875 4.832031 35.46875 L 39.867188 35.46875 C 40.132812 35.46875 40.375 35.320312 40.496094 35.082031 C 40.617188 34.84375 40.59375 34.5625 40.4375 34.347656 L 38.921875 32.277344 L 38.921875 32.214844 L 38.875 32.214844 L 38.070312 31.117188 L 39.941406 31.117188 C 40.316406 31.117188 40.667969 31.285156 40.898438 31.582031 L 44.117188 35.660156 C 44.140625 35.691406 44.164062 35.722656 44.1875 35.753906 C 43.496094 36.628906 42.332031 37.039062 40.628906 37.003906 L 26.421875 37.003906 L 26.386719 37.160156 C 26.253906 37.730469 25.972656 38.046875 25.457031 38.214844 L 18.6875 38.214844 C 18.097656 38.136719 17.738281 37.835938 17.558594 37.277344 L 17.515625 37.140625 L 4.085938 37.140625 C 2.851562 37.148438 1.464844 37.019531 0.488281 35.996094 C 0.5625 35.714844 0.691406 35.449219 0.867188 35.21875 Z M 39.984375 40.09375 L 5.050781 40.09375 C 2.304688 40.078125 0.890625 39.105469 0.460938 36.941406 C 0.429688 36.792969 0.417969 36.640625 0.421875 36.492188 C 1.03125 37.039062 2.039062 37.554688 4.089844 37.539062 L 17.226562 37.539062 C 17.472656 38.164062 17.949219 38.523438 18.648438 38.613281 L 25.519531 38.617188 L 25.546875 38.605469 C 26.332031 38.363281 26.609375 37.835938 26.738281 37.40625 L 40.625 37.40625 C 42.378906 37.441406 43.617188 37.023438 44.398438 36.132812 C 44.5 36.371094 44.554688 36.628906 44.5625 36.890625 C 44.59375 38.394531 44.078125 39.949219 39.984375 40.09375 Z M 39.984375 40.09375 " fill-opacity="1" fill-rule="nonzero"/></g><path fill="#0857de" d="M 15.4375 24.339844 L 15.535156 24.660156 C 15.609375 24.902344 15.867188 25.039062 16.113281 24.96875 L 17.683594 24.496094 C 17.929688 24.421875 18.070312 24.164062 17.996094 23.917969 L 17.90625 23.613281 C 17.847656 23.429688 17.691406 23.304688 17.515625 23.285156 C 17.382812 21.886719 16.414062 21.21875 15.863281 21.035156 L 15.078125 20.238281 C 14.90625 20.066406 14.648438 20.027344 14.4375 20.136719 L 13.960938 18.039062 L 13.941406 18.007812 C 13.777344 17.730469 13.558594 17.546875 13.289062 17.589844 C 13.171875 17.609375 13.074219 17.671875 13.007812 17.738281 C 12.9375 17.804688 12.882812 17.882812 12.84375 17.953125 C 12.78125 18.066406 12.769531 18.191406 12.777344 18.289062 C 12.886719 19.800781 13.058594 20.800781 13.226562 21.4375 C 13.3125 21.753906 13.402344 21.988281 13.484375 22.152344 C 13.527344 22.234375 13.570312 22.304688 13.617188 22.359375 C 13.65625 22.40625 13.703125 22.453125 13.765625 22.488281 L 15.21875 23.496094 C 15.320312 23.566406 15.398438 23.660156 15.453125 23.769531 L 15.519531 23.910156 C 15.425781 24.027344 15.390625 24.183594 15.4375 24.339844 Z M 17.550781 24.050781 L 15.980469 24.519531 L 15.882812 24.203125 L 17.460938 23.746094 Z M 15.484375 23.113281 L 13.996094 22.082031 L 13.988281 22.078125 C 13.984375 22.074219 13.980469 22.070312 13.976562 22.066406 C 13.957031 22.042969 13.933594 22.003906 13.898438 21.941406 C 13.835938 21.816406 13.757812 21.613281 13.675781 21.316406 C 13.515625 20.71875 13.351562 19.75 13.242188 18.253906 C 13.238281 18.214844 13.246094 18.191406 13.25 18.179688 C 13.273438 18.136719 13.300781 18.101562 13.328125 18.074219 C 13.351562 18.054688 13.363281 18.050781 13.367188 18.050781 C 13.371094 18.050781 13.378906 18.054688 13.390625 18.0625 C 13.421875 18.082031 13.464844 18.125 13.523438 18.214844 L 14.105469 20.773438 C 14.117188 20.894531 14.167969 21.015625 14.25 21.117188 L 15.050781 22.078125 C 15.132812 22.179688 15.28125 22.191406 15.378906 22.109375 C 15.476562 22.027344 15.492188 21.882812 15.410156 21.78125 L 14.609375 20.820312 C 14.597656 20.808594 14.589844 20.792969 14.582031 20.777344 C 14.582031 20.773438 14.582031 20.769531 14.582031 20.765625 L 14.566406 20.703125 C 14.566406 20.648438 14.59375 20.589844 14.644531 20.554688 C 14.675781 20.53125 14.71875 20.535156 14.746094 20.5625 L 15.617188 21.445312 L 15.675781 21.464844 C 16.058594 21.570312 16.882812 22.070312 17.039062 23.210938 L 15.863281 23.554688 C 15.777344 23.378906 15.644531 23.226562 15.484375 23.113281 Z M 15.484375 23.113281 " fill-opacity="1" fill-rule="nonzero"/><g clip-path="url(#468775f533)"><path fill="#0857de" d="M 23.621094 17.738281 C 23.554688 17.671875 23.457031 17.609375 23.339844 17.589844 C 23.070312 17.546875 22.851562 17.730469 22.6875 18.007812 L 22.667969 18.039062 L 22.191406 20.136719 C 21.984375 20.027344 21.722656 20.066406 21.554688 20.238281 L 20.765625 21.035156 C 20.214844 21.21875 19.246094 21.886719 19.113281 23.285156 C 18.9375 23.304688 18.78125 23.429688 18.722656 23.613281 L 18.632812 23.917969 C 18.558594 24.164062 18.699219 24.421875 18.945312 24.496094 L 20.515625 24.96875 C 20.761719 25.039062 21.019531 24.902344 21.09375 24.660156 L 21.191406 24.339844 C 21.238281 24.183594 21.203125 24.027344 21.109375 23.910156 L 21.175781 23.769531 C 21.230469 23.660156 21.308594 23.566406 21.410156 23.496094 L 22.863281 22.488281 C 22.925781 22.453125 22.972656 22.40625 23.011719 22.359375 C 23.058594 22.304688 23.101562 22.234375 23.144531 22.152344 C 23.226562 21.988281 23.316406 21.753906 23.402344 21.4375 C 23.570312 20.800781 23.742188 19.800781 23.851562 18.289062 C 23.859375 18.191406 23.847656 18.066406 23.785156 17.953125 C 23.746094 17.882812 23.691406 17.804688 23.621094 17.738281 Z M 20.648438 24.519531 L 19.078125 24.050781 L 19.171875 23.746094 L 20.746094 24.203125 Z M 22.953125 21.316406 C 22.871094 21.613281 22.792969 21.816406 22.730469 21.941406 C 22.695312 22.003906 22.671875 22.042969 22.652344 22.066406 C 22.648438 22.070312 22.644531 22.074219 22.640625 22.078125 L 22.632812 22.082031 L 21.144531 23.113281 C 20.984375 23.226562 20.851562 23.378906 20.765625 23.554688 L 19.589844 23.210938 C 19.75 22.070312 20.570312 21.570312 20.953125 21.464844 L 21.011719 21.445312 L 21.882812 20.5625 C 21.910156 20.535156 21.953125 20.53125 21.988281 20.554688 C 22.035156 20.589844 22.0625 20.648438 22.0625 20.703125 L 22.050781 20.765625 C 22.046875 20.769531 22.046875 20.773438 22.046875 20.777344 C 22.039062 20.792969 22.03125 20.808594 22.019531 20.820312 L 21.21875 21.78125 C 21.136719 21.882812 21.152344 22.027344 21.25 22.109375 C 21.347656 22.191406 21.496094 22.179688 21.578125 22.078125 L 22.378906 21.117188 C 22.464844 21.015625 22.511719 20.894531 22.523438 20.773438 L 23.105469 18.214844 C 23.164062 18.125 23.207031 18.082031 23.238281 18.0625 C 23.25 18.054688 23.261719 18.050781 23.261719 18.050781 C 23.265625 18.050781 23.28125 18.054688 23.300781 18.074219 C 23.328125 18.101562 23.355469 18.136719 23.378906 18.179688 C 23.382812 18.191406 23.390625 18.214844 23.386719 18.253906 C 23.277344 19.75 23.113281 20.71875 22.953125 21.316406 Z M 22.953125 21.316406 " fill-opacity="1" fill-rule="nonzero"/></g><g clip-path="url(#db129d4017)"><path fill="#0857de" d="M 10.726562 28.296875 L 12.835938 28.296875 C 13.207031 28.296875 13.429688 27.886719 13.222656 27.574219 L 12.730469 26.832031 C 12.453125 26.1875 12.648438 25.519531 12.855469 25.132812 C 12.859375 25.128906 12.863281 25.125 12.863281 25.117188 C 12.933594 24.988281 13.019531 24.828125 13.0625 24.652344 C 13.199219 24.105469 13.191406 23.648438 13.078125 23.277344 C 12.960938 22.898438 12.738281 22.625 12.464844 22.429688 C 11.933594 22.050781 11.222656 21.980469 10.726562 22.027344 C 10.386719 22.035156 9.890625 22.125 9.464844 22.371094 C 9.027344 22.621094 8.648438 23.050781 8.617188 23.714844 C 8.613281 23.742188 8.613281 23.765625 8.613281 23.789062 C 8.609375 23.871094 8.605469 23.9375 8.59375 24.003906 C 8.539062 24.292969 8.421875 24.695312 8.242188 24.945312 C 8.195312 25.011719 8.136719 25.109375 8.125 25.226562 C 8.117188 25.289062 8.125 25.359375 8.160156 25.433594 C 8.199219 25.503906 8.257812 25.554688 8.324219 25.589844 C 8.390625 25.625 8.476562 25.65625 8.570312 25.683594 C 8.71875 25.726562 8.824219 25.835938 8.851562 25.964844 C 8.890625 26.160156 8.953125 26.382812 9.050781 26.558594 C 9.144531 26.722656 9.320312 26.933594 9.601562 26.894531 C 9.832031 26.867188 9.992188 26.859375 10.117188 26.90625 C 10.222656 26.949219 10.34375 27.046875 10.4375 27.351562 L 10.304688 27.632812 C 10.160156 27.941406 10.386719 28.296875 10.726562 28.296875 Z M 10.289062 26.476562 C 10.035156 26.375 9.757812 26.40625 9.542969 26.433594 C 9.542969 26.433594 9.539062 26.433594 9.535156 26.429688 C 9.515625 26.417969 9.488281 26.386719 9.457031 26.332031 C 9.394531 26.21875 9.34375 26.050781 9.308594 25.871094 C 9.242188 25.550781 8.988281 25.316406 8.695312 25.234375 C 8.667969 25.226562 8.644531 25.21875 8.625 25.210938 C 8.863281 24.878906 8.996094 24.394531 9.050781 24.089844 C 9.070312 23.984375 9.074219 23.878906 9.078125 23.792969 C 9.078125 23.773438 9.078125 23.753906 9.082031 23.738281 C 9.105469 23.265625 9.359375 22.96875 9.695312 22.773438 C 10.042969 22.574219 10.460938 22.5 10.746094 22.492188 L 10.761719 22.492188 C 11.199219 22.449219 11.785156 22.515625 12.195312 22.808594 C 12.390625 22.949219 12.550781 23.144531 12.632812 23.414062 C 12.71875 23.6875 12.730469 24.050781 12.613281 24.539062 C 12.582031 24.65625 12.523438 24.769531 12.449219 24.914062 C 12.203125 25.367188 11.941406 26.203125 12.3125 27.035156 L 12.320312 27.054688 L 12.835938 27.832031 L 10.726562 27.832031 L 10.859375 27.546875 C 10.90625 27.449219 10.921875 27.332031 10.886719 27.222656 C 10.761719 26.824219 10.5625 26.582031 10.289062 26.476562 Z M 10.289062 26.476562 " fill-opacity="1" fill-rule="nonzero"/></g><path fill="#0857de" d="M 19.332031 20.109375 L 19.332031 19.898438 C 19.332031 19.722656 19.441406 19.546875 19.625 19.390625 C 20.058594 19.023438 20.332031 18.460938 20.332031 17.835938 C 20.332031 16.742188 19.488281 15.832031 18.421875 15.832031 C 17.546875 15.832031 16.820312 16.445312 16.589844 17.269531 C 16.558594 17.195312 16.492188 17.136719 16.40625 17.125 L 15.855469 17.058594 C 15.730469 17.042969 15.613281 17.132812 15.597656 17.261719 C 15.582031 17.390625 15.671875 17.503906 15.800781 17.519531 L 16.347656 17.589844 C 16.421875 17.597656 16.488281 17.570312 16.535156 17.523438 C 16.519531 17.625 16.511719 17.730469 16.511719 17.835938 C 16.511719 18.460938 16.785156 19.023438 17.21875 19.390625 C 17.398438 19.546875 17.507812 19.722656 17.507812 19.898438 L 17.507812 20.109375 C 17.507812 20.375 17.660156 20.601562 17.878906 20.71875 L 17.878906 20.792969 C 17.878906 21.089844 18.117188 21.328125 18.414062 21.328125 C 18.71875 21.328125 18.960938 21.070312 18.945312 20.761719 L 18.941406 20.730469 C 19.171875 20.617188 19.332031 20.382812 19.332031 20.109375 Z M 18.414062 20.863281 C 18.378906 20.863281 18.355469 20.835938 18.347656 20.804688 L 18.472656 20.804688 C 18.46875 20.835938 18.445312 20.863281 18.414062 20.863281 Z M 18.867188 20.109375 C 18.867188 20.238281 18.765625 20.339844 18.636719 20.339844 L 18.207031 20.339844 C 18.078125 20.339844 17.972656 20.238281 17.972656 20.109375 L 17.972656 19.917969 L 18.867188 19.917969 Z M 17.859375 19.453125 C 17.773438 19.289062 17.648438 19.144531 17.519531 19.035156 C 17.1875 18.757812 16.976562 18.324219 16.976562 17.835938 C 16.976562 16.976562 17.632812 16.300781 18.421875 16.300781 C 19.207031 16.300781 19.867188 16.976562 19.867188 17.835938 C 19.867188 18.324219 19.652344 18.757812 19.324219 19.035156 C 19.195312 19.144531 19.070312 19.289062 18.984375 19.453125 Z M 17.859375 19.453125 " fill-opacity="1" fill-rule="nonzero"/><path fill="#0857de" d="M 18.652344 15.582031 L 18.652344 15.027344 C 18.652344 14.898438 18.550781 14.792969 18.421875 14.792969 C 18.292969 14.792969 18.1875 14.898438 18.1875 15.027344 L 18.1875 15.582031 C 18.1875 15.707031 18.292969 15.8125 18.421875 15.8125 C 18.550781 15.8125 18.652344 15.707031 18.652344 15.582031 Z M 18.652344 15.582031 " fill-opacity="1" fill-rule="nonzero"/><path fill="#0857de" d="M 17.164062 16.25 C 17.265625 16.175781 17.285156 16.027344 17.207031 15.925781 L 16.875 15.484375 C 16.796875 15.382812 16.652344 15.363281 16.546875 15.441406 C 16.445312 15.515625 16.425781 15.664062 16.503906 15.765625 L 16.835938 16.207031 C 16.914062 16.308594 17.0625 16.328125 17.164062 16.25 Z M 17.164062 16.25 " fill-opacity="1" fill-rule="nonzero"/><path fill="#0857de" d="M 20.417969 15.441406 C 20.316406 15.363281 20.171875 15.382812 20.09375 15.484375 L 19.761719 15.925781 C 19.683594 16.027344 19.703125 16.175781 19.804688 16.25 C 19.90625 16.328125 20.054688 16.308594 20.132812 16.207031 L 20.464844 15.765625 C 20.542969 15.664062 20.523438 15.515625 20.417969 15.441406 Z M 20.417969 15.441406 " fill-opacity="1" fill-rule="nonzero"/><path fill="#0857de" d="M 20.6875 17.621094 L 21.238281 17.554688 C 21.363281 17.539062 21.453125 17.421875 21.4375 17.296875 C 21.421875 17.167969 21.308594 17.078125 21.179688 17.09375 L 20.632812 17.160156 C 20.503906 17.175781 20.414062 17.292969 20.429688 17.417969 C 20.445312 17.546875 20.558594 17.636719 20.6875 17.621094 Z M 20.6875 17.621094 " fill-opacity="1" fill-rule="nonzero"/><g clip-path="url(#caf53c0880)"><path fill="#0857de" d="M 8.949219 18.503906 L 9.785156 18.113281 C 9.902344 18.058594 9.949219 17.921875 9.894531 17.804688 L 9.804688 17.605469 C 9.75 17.492188 9.796875 17.355469 9.914062 17.304688 C 10.027344 17.25 10.160156 17.300781 10.214844 17.414062 L 10.308594 17.613281 C 10.363281 17.730469 10.5 17.78125 10.617188 17.726562 L 12.285156 16.949219 C 12.398438 16.894531 12.449219 16.753906 12.394531 16.640625 L 12.0625 15.921875 L 15.222656 14.382812 C 15.335938 14.328125 15.382812 14.1875 15.328125 14.070312 L 13.71875 10.765625 C 13.664062 10.648438 13.523438 10.601562 13.40625 10.660156 L 12.847656 10.929688 L 12.84375 10.921875 C 12.660156 10.546875 12.207031 10.390625 11.832031 10.570312 C 11.488281 10.738281 11.34375 11.152344 11.511719 11.496094 L 11.546875 11.566406 L 10.101562 12.269531 C 9.984375 12.324219 9.9375 12.464844 9.992188 12.578125 L 10.335938 13.285156 L 7.199219 14.75 C 7.082031 14.804688 7.03125 14.941406 7.085938 15.058594 L 8.640625 18.390625 C 8.695312 18.507812 8.835938 18.558594 8.949219 18.503906 Z M 11.957031 11.882812 C 12.074219 11.824219 12.121094 11.6875 12.066406 11.570312 L 11.929688 11.292969 C 11.875 11.179688 11.921875 11.046875 12.035156 10.992188 C 12.179688 10.917969 12.355469 10.980469 12.425781 11.125 L 12.53125 11.34375 C 12.589844 11.457031 12.726562 11.507812 12.84375 11.449219 L 13.402344 11.179688 L 14.808594 14.066406 L 11.921875 15.472656 L 11.765625 15.160156 L 11.785156 15.152344 C 12.128906 14.988281 12.28125 14.578125 12.117188 14.230469 C 11.945312 13.859375 11.507812 13.695312 11.132812 13.859375 L 10.515625 12.585938 Z M 10.515625 13.714844 L 10.78125 14.277344 C 10.835938 14.394531 10.972656 14.445312 11.089844 14.390625 L 11.308594 14.285156 C 11.453125 14.21875 11.628906 14.28125 11.695312 14.429688 C 11.75 14.542969 11.699219 14.675781 11.585938 14.730469 L 11.308594 14.859375 C 11.191406 14.914062 11.140625 15.054688 11.195312 15.167969 L 11.875 16.625 L 10.632812 17.207031 C 10.464844 16.867188 10.058594 16.722656 9.714844 16.882812 C 9.371094 17.042969 9.222656 17.449219 9.375 17.792969 L 8.964844 17.984375 L 7.605469 15.074219 Z M 10.515625 13.714844 " fill-opacity="1" fill-rule="nonzero"/></g><path fill="#0857de" d="M 18.375 18.347656 C 18.308594 18.347656 18.253906 18.367188 18.210938 18.414062 C 18.164062 18.457031 18.140625 18.511719 18.144531 18.574219 C 18.140625 18.640625 18.164062 18.695312 18.210938 18.738281 C 18.253906 18.785156 18.308594 18.804688 18.375 18.804688 C 18.414062 18.804688 18.453125 18.796875 18.488281 18.773438 C 18.523438 18.753906 18.550781 18.726562 18.570312 18.691406 C 18.59375 18.65625 18.605469 18.617188 18.605469 18.574219 C 18.605469 18.511719 18.582031 18.457031 18.535156 18.414062 C 18.488281 18.367188 18.433594 18.347656 18.375 18.347656 Z M 18.375 18.347656 " fill-opacity="1" fill-rule="nonzero"/><path fill="#0857de" d="M 18.714844 17.117188 C 18.625 17.082031 18.519531 17.066406 18.402344 17.066406 C 18.292969 17.066406 18.195312 17.082031 18.105469 17.117188 C 18.015625 17.152344 17.945312 17.210938 17.890625 17.285156 C 17.835938 17.359375 17.808594 17.457031 17.808594 17.578125 L 18.230469 17.578125 C 18.230469 17.546875 18.238281 17.519531 18.253906 17.496094 C 18.269531 17.472656 18.289062 17.453125 18.316406 17.4375 C 18.339844 17.425781 18.367188 17.417969 18.398438 17.417969 C 18.425781 17.417969 18.449219 17.425781 18.472656 17.433594 C 18.496094 17.445312 18.511719 17.464844 18.527344 17.484375 C 18.539062 17.503906 18.546875 17.527344 18.546875 17.558594 C 18.546875 17.585938 18.539062 17.617188 18.519531 17.640625 C 18.503906 17.664062 18.484375 17.6875 18.457031 17.707031 C 18.425781 17.730469 18.394531 17.75 18.359375 17.773438 C 18.320312 17.800781 18.285156 17.832031 18.257812 17.863281 C 18.230469 17.898438 18.207031 17.941406 18.195312 17.992188 C 18.179688 18.046875 18.171875 18.121094 18.171875 18.210938 L 18.171875 18.25 L 18.5625 18.25 L 18.5625 18.210938 C 18.5625 18.167969 18.570312 18.128906 18.582031 18.097656 C 18.597656 18.066406 18.617188 18.039062 18.644531 18.015625 C 18.671875 17.992188 18.703125 17.964844 18.746094 17.945312 C 18.796875 17.910156 18.84375 17.878906 18.886719 17.839844 C 18.925781 17.800781 18.957031 17.757812 18.980469 17.707031 C 19.003906 17.65625 19.015625 17.597656 19.015625 17.53125 C 19.015625 17.425781 18.988281 17.339844 18.933594 17.273438 C 18.882812 17.203125 18.808594 17.152344 18.714844 17.117188 Z M 18.714844 17.117188 " fill-opacity="1" fill-rule="nonzero"/><path fill="#0857de" d="M 10.933594 25.476562 C 10.949219 25.460938 10.976562 25.460938 10.992188 25.476562 C 11.324219 25.875 11.972656 25.566406 11.867188 25.054688 C 11.863281 25.03125 11.878906 25.011719 11.902344 25.011719 C 12.425781 25 12.582031 24.300781 12.121094 24.0625 C 12.097656 24.050781 12.09375 24.027344 12.105469 24.007812 C 12.421875 23.59375 11.976562 23.03125 11.5 23.246094 C 11.480469 23.257812 11.457031 23.246094 11.449219 23.222656 C 11.324219 22.71875 10.605469 22.71875 10.476562 23.222656 C 10.472656 23.246094 10.449219 23.257812 10.425781 23.246094 C 9.953125 23.03125 9.503906 23.59375 9.820312 24.007812 C 9.832031 24.027344 9.828125 24.050781 9.808594 24.0625 C 9.34375 24.300781 9.503906 25 10.023438 25.011719 C 10.046875 25.011719 10.0625 25.03125 10.058594 25.054688 C 9.953125 25.566406 10.601562 25.875 10.933594 25.476562 Z M 10.558594 25.191406 C 10.554688 25.195312 10.546875 25.191406 10.535156 25.1875 C 10.523438 25.183594 10.519531 25.175781 10.515625 25.171875 C 10.515625 25.167969 10.511719 25.164062 10.515625 25.148438 C 10.578125 24.839844 10.347656 24.554688 10.035156 24.546875 C 10.019531 24.546875 10.015625 24.542969 10.011719 24.539062 C 10.007812 24.535156 10.003906 24.527344 10 24.519531 C 9.996094 24.507812 10 24.496094 10 24.492188 C 10.003906 24.492188 10.003906 24.484375 10.019531 24.476562 C 10.296875 24.335938 10.378906 23.976562 10.191406 23.726562 C 10.179688 23.714844 10.179688 23.707031 10.179688 23.703125 C 10.179688 23.699219 10.183594 23.691406 10.191406 23.679688 C 10.199219 23.671875 10.207031 23.667969 10.210938 23.667969 C 10.214844 23.667969 10.21875 23.664062 10.234375 23.671875 C 10.519531 23.800781 10.851562 23.640625 10.929688 23.335938 C 10.933594 23.320312 10.9375 23.316406 10.941406 23.316406 C 10.945312 23.3125 10.953125 23.308594 10.964844 23.308594 C 10.976562 23.308594 10.984375 23.3125 10.988281 23.316406 C 10.988281 23.316406 10.996094 23.320312 11 23.335938 C 11.074219 23.640625 11.40625 23.800781 11.691406 23.671875 C 11.707031 23.664062 11.714844 23.667969 11.714844 23.667969 C 11.722656 23.667969 11.730469 23.671875 11.738281 23.679688 C 11.742188 23.691406 11.746094 23.699219 11.746094 23.703125 C 11.746094 23.707031 11.746094 23.714844 11.738281 23.726562 C 11.546875 23.976562 11.628906 24.335938 11.910156 24.476562 C 11.921875 24.484375 11.925781 24.492188 11.925781 24.492188 C 11.929688 24.496094 11.929688 24.507812 11.925781 24.519531 C 11.925781 24.527344 11.917969 24.535156 11.914062 24.539062 C 11.914062 24.542969 11.90625 24.546875 11.890625 24.546875 C 11.578125 24.554688 11.351562 24.839844 11.414062 25.148438 C 11.414062 25.164062 11.414062 25.167969 11.410156 25.171875 C 11.410156 25.175781 11.402344 25.183594 11.390625 25.1875 C 11.382812 25.191406 11.375 25.195312 11.367188 25.191406 C 11.363281 25.191406 11.359375 25.191406 11.347656 25.179688 C 11.148438 24.9375 10.777344 24.9375 10.578125 25.179688 C 10.570312 25.191406 10.5625 25.191406 10.558594 25.191406 Z M 10.558594 25.191406 " fill-opacity="1" fill-rule="nonzero"/><path fill="#0857de" d="M 11.527344 24.296875 C 11.527344 23.988281 11.273438 23.734375 10.964844 23.734375 C 10.652344 23.734375 10.402344 23.988281 10.402344 24.296875 C 10.402344 24.609375 10.652344 24.859375 10.964844 24.859375 C 11.273438 24.859375 11.527344 24.609375 11.527344 24.296875 Z M 10.964844 24.394531 C 10.910156 24.394531 10.867188 24.351562 10.867188 24.296875 C 10.867188 24.242188 10.910156 24.199219 10.964844 24.199219 C 11.015625 24.199219 11.0625 24.242188 11.0625 24.296875 C 11.0625 24.351562 11.015625 24.394531 10.964844 24.394531 Z M 10.964844 24.394531 " fill-opacity="1" fill-rule="nonzero"/><g clip-path="url(#a718b50e0a)"><path fill="#0857de" d="M 35.367188 24.800781 L 27.507812 24.800781 C 27.246094 24.800781 27.03125 24.585938 27.03125 24.324219 L 27.03125 21.195312 L 28.074219 21.195312 C 28.4375 21.195312 28.753906 21.003906 28.933594 20.722656 L 32.308594 20.722656 C 32.378906 20.722656 32.4375 20.664062 32.4375 20.59375 C 32.4375 20.523438 32.378906 20.464844 32.308594 20.464844 L 29.046875 20.464844 C 29.074219 20.375 29.085938 20.28125 29.085938 20.183594 L 29.085938 19.324219 L 32.308594 19.324219 C 32.378906 19.324219 32.4375 19.265625 32.4375 19.195312 C 32.4375 19.125 32.378906 19.070312 32.308594 19.070312 L 29.085938 19.070312 L 29.085938 18.355469 C 29.085938 17.796875 28.632812 17.34375 28.074219 17.34375 L 27.03125 17.34375 L 27.03125 15.03125 C 27.03125 14.765625 27.246094 14.550781 27.507812 14.550781 L 33.261719 14.550781 L 33.261719 16.378906 C 33.261719 16.59375 33.4375 16.769531 33.652344 16.769531 L 35.847656 16.769531 L 35.847656 24.324219 C 35.847656 24.585938 35.632812 24.800781 35.367188 24.800781 Z M 32.308594 16.53125 L 28.277344 16.53125 C 28.207031 16.53125 28.152344 16.476562 28.152344 16.40625 C 28.152344 16.335938 28.207031 16.277344 28.277344 16.277344 L 32.308594 16.277344 C 32.378906 16.277344 32.4375 16.335938 32.4375 16.40625 C 32.4375 16.476562 32.378906 16.53125 32.308594 16.53125 Z M 32.308594 17.929688 L 29.085938 17.929688 C 29.015625 17.929688 28.957031 17.871094 28.957031 17.800781 C 28.957031 17.730469 29.015625 17.671875 29.085938 17.671875 L 32.308594 17.671875 C 32.378906 17.671875 32.4375 17.730469 32.4375 17.800781 C 32.4375 17.871094 32.378906 17.929688 32.308594 17.929688 Z M 34.597656 17.929688 L 33.144531 17.929688 C 33.074219 17.929688 33.015625 17.871094 33.015625 17.800781 C 33.015625 17.730469 33.074219 17.671875 33.144531 17.671875 L 34.597656 17.671875 C 34.667969 17.671875 34.726562 17.730469 34.726562 17.800781 C 34.726562 17.871094 34.667969 17.929688 34.597656 17.929688 Z M 34.597656 19.324219 L 33.144531 19.324219 C 33.074219 19.324219 33.015625 19.265625 33.015625 19.195312 C 33.015625 19.125 33.074219 19.070312 33.144531 19.070312 L 34.597656 19.070312 C 34.667969 19.070312 34.726562 19.125 34.726562 19.195312 C 34.726562 19.265625 34.667969 19.324219 34.597656 19.324219 Z M 34.597656 20.722656 L 33.144531 20.722656 C 33.074219 20.722656 33.015625 20.664062 33.015625 20.59375 C 33.015625 20.523438 33.074219 20.464844 33.144531 20.464844 L 34.597656 20.464844 C 34.667969 20.464844 34.726562 20.523438 34.726562 20.59375 C 34.726562 20.664062 34.667969 20.722656 34.597656 20.722656 Z M 32.308594 22.117188 L 28.277344 22.117188 C 28.207031 22.117188 28.152344 22.058594 28.152344 21.988281 C 28.152344 21.917969 28.207031 21.859375 28.277344 21.859375 L 32.308594 21.859375 C 32.378906 21.859375 32.4375 21.917969 32.4375 21.988281 C 32.4375 22.058594 32.378906 22.117188 32.308594 22.117188 Z M 34.597656 22.117188 L 33.144531 22.117188 C 33.074219 22.117188 33.015625 22.058594 33.015625 21.988281 C 33.015625 21.917969 33.074219 21.859375 33.144531 21.859375 L 34.597656 21.859375 C 34.667969 21.859375 34.726562 21.917969 34.726562 21.988281 C 34.726562 22.058594 34.667969 22.117188 34.597656 22.117188 Z M 32.308594 23.511719 L 28.277344 23.511719 C 28.207031 23.511719 28.152344 23.457031 28.152344 23.386719 C 28.152344 23.3125 28.207031 23.257812 28.277344 23.257812 L 32.308594 23.257812 C 32.378906 23.257812 32.4375 23.3125 32.4375 23.386719 C 32.4375 23.457031 32.378906 23.511719 32.308594 23.511719 Z M 34.597656 23.511719 L 33.144531 23.511719 C 33.074219 23.511719 33.015625 23.457031 33.015625 23.386719 C 33.015625 23.3125 33.074219 23.257812 33.144531 23.257812 L 34.597656 23.257812 C 34.667969 23.257812 34.726562 23.3125 34.726562 23.386719 C 34.726562 23.457031 34.667969 23.511719 34.597656 23.511719 Z M 34.597656 23.511719 " fill-opacity="1" fill-rule="evenodd"/></g><g clip-path="url(#54ca1696e6)"><path fill="#0857de" d="M 35.71875 16.507812 L 33.652344 16.507812 C 33.582031 16.507812 33.523438 16.449219 33.523438 16.378906 L 33.523438 14.679688 C 33.523438 14.628906 33.554688 14.585938 33.597656 14.566406 C 33.644531 14.542969 33.695312 14.550781 33.734375 14.582031 L 35.800781 16.28125 C 35.839844 16.316406 35.855469 16.371094 35.839844 16.421875 C 35.820312 16.472656 35.773438 16.507812 35.71875 16.507812 Z M 35.71875 16.507812 " fill-opacity="1" fill-rule="evenodd"/></g><g clip-path="url(#717122e6b7)"><path fill="#0857de" d="M 26.769531 24.132812 C 26.542969 24.097656 26.367188 23.898438 26.367188 23.660156 L 26.367188 21.195312 L 26.769531 21.195312 Z M 26.367188 17.34375 L 26.367188 14.367188 C 26.367188 14.105469 26.582031 13.890625 26.84375 13.890625 L 32.9375 13.890625 C 33.007812 13.890625 33.066406 13.949219 33.066406 14.019531 L 33.066406 14.289062 L 27.507812 14.289062 C 27.101562 14.289062 26.769531 14.621094 26.769531 15.03125 L 26.769531 17.34375 Z M 26.367188 17.34375 " fill-opacity="1" fill-rule="evenodd"/></g><g clip-path="url(#b69da559a3)"><path fill="#0857de" d="M 28.074219 20.933594 L 26.144531 20.933594 C 25.730469 20.933594 25.390625 20.597656 25.390625 20.183594 L 25.390625 18.355469 C 25.390625 17.941406 25.730469 17.605469 26.144531 17.605469 L 28.074219 17.605469 C 28.488281 17.605469 28.824219 17.941406 28.824219 18.355469 L 28.824219 20.183594 C 28.824219 20.597656 28.488281 20.933594 28.074219 20.933594 Z M 27.449219 20.035156 L 27.4375 20.035156 L 27.4375 20.03125 L 27.417969 20.03125 L 27.417969 20.027344 L 27.40625 20.027344 C 27.402344 20.023438 27.394531 20.019531 27.386719 20.019531 L 27.386719 20.015625 L 27.382812 20.015625 L 27.375 20.007812 L 27.371094 20.007812 L 27.371094 20.003906 L 27.367188 20.003906 L 27.367188 20 L 27.363281 20 L 27.355469 19.992188 L 27.355469 19.988281 C 27.351562 19.984375 27.347656 19.980469 27.34375 19.976562 C 27.339844 19.972656 27.339844 19.964844 27.335938 19.960938 L 27.332031 19.953125 L 27.332031 19.949219 L 27.328125 19.949219 L 27.328125 19.945312 L 27.109375 19.265625 L 26.890625 19.945312 L 26.890625 19.949219 L 26.886719 19.949219 L 26.886719 19.957031 L 26.882812 19.960938 L 26.882812 19.964844 L 26.878906 19.964844 L 26.878906 19.972656 L 26.875 19.972656 L 26.875 19.976562 L 26.871094 19.980469 L 26.871094 19.984375 L 26.867188 19.984375 L 26.867188 19.988281 L 26.863281 19.988281 L 26.863281 19.992188 L 26.859375 19.992188 L 26.859375 19.996094 L 26.855469 20 L 26.851562 20 L 26.851562 20.003906 L 26.847656 20.003906 L 26.847656 20.007812 L 26.84375 20.007812 L 26.835938 20.015625 L 26.832031 20.015625 L 26.828125 20.019531 L 26.824219 20.019531 L 26.820312 20.023438 L 26.8125 20.023438 L 26.8125 20.027344 L 26.800781 20.027344 L 26.800781 20.03125 L 26.78125 20.03125 L 26.78125 20.035156 L 26.757812 20.035156 L 26.753906 20.03125 L 26.734375 20.03125 L 26.734375 20.027344 L 26.730469 20.027344 C 26.726562 20.027344 26.722656 20.023438 26.71875 20.023438 L 26.714844 20.023438 L 26.714844 20.019531 L 26.707031 20.019531 L 26.703125 20.015625 L 26.699219 20.015625 L 26.699219 20.011719 L 26.695312 20.011719 L 26.691406 20.007812 L 26.6875 20.007812 L 26.6875 20.003906 L 26.683594 20 L 26.679688 20 L 26.679688 19.996094 L 26.675781 19.996094 L 26.675781 19.992188 C 26.667969 19.984375 26.660156 19.976562 26.65625 19.964844 L 26.652344 19.960938 L 26.652344 19.957031 L 26.648438 19.957031 L 26.648438 19.953125 L 26.144531 18.679688 C 26.117188 18.613281 26.148438 18.539062 26.214844 18.511719 C 26.28125 18.488281 26.355469 18.519531 26.378906 18.585938 L 26.753906 19.527344 L 26.988281 18.816406 C 26.988281 18.804688 26.992188 18.796875 27 18.785156 L 27 18.78125 L 27.011719 18.769531 C 27.011719 18.769531 27.015625 18.765625 27.015625 18.761719 L 27.019531 18.761719 C 27.03125 18.75 27.046875 18.738281 27.0625 18.734375 L 27.0625 18.730469 L 27.074219 18.730469 L 27.078125 18.726562 L 27.09375 18.726562 L 27.09375 18.722656 L 27.125 18.722656 L 27.125 18.726562 L 27.132812 18.726562 C 27.136719 18.726562 27.136719 18.726562 27.140625 18.726562 L 27.144531 18.730469 L 27.148438 18.730469 C 27.171875 18.738281 27.1875 18.75 27.203125 18.765625 C 27.207031 18.769531 27.210938 18.773438 27.210938 18.773438 L 27.21875 18.78125 C 27.222656 18.792969 27.230469 18.804688 27.230469 18.816406 L 27.460938 19.527344 L 27.835938 18.585938 C 27.863281 18.519531 27.9375 18.488281 28.003906 18.511719 C 28.070312 18.539062 28.101562 18.613281 28.074219 18.679688 L 27.570312 19.949219 C 27.570312 19.953125 27.566406 19.957031 27.566406 19.960938 L 27.5625 19.964844 L 27.5625 19.972656 L 27.558594 19.972656 L 27.558594 19.976562 L 27.550781 19.984375 L 27.550781 19.988281 L 27.546875 19.988281 L 27.546875 19.992188 L 27.542969 19.992188 L 27.542969 19.996094 L 27.539062 19.996094 L 27.539062 20 L 27.535156 20.003906 L 27.53125 20.003906 C 27.53125 20.003906 27.527344 20.007812 27.527344 20.007812 L 27.523438 20.007812 L 27.523438 20.011719 L 27.519531 20.011719 L 27.515625 20.015625 L 27.511719 20.015625 L 27.511719 20.019531 L 27.503906 20.019531 L 27.503906 20.023438 L 27.496094 20.023438 L 27.492188 20.027344 L 27.484375 20.027344 L 27.484375 20.03125 L 27.460938 20.03125 L 27.460938 20.035156 Z M 27.449219 20.035156 " fill-opacity="1" fill-rule="evenodd"/></g></svg>