<svg xmlns="http://www.w3.org/2000/svg" xmlns:xlink="http://www.w3.org/1999/xlink" width="60" zoomAndPan="magnify" viewBox="0 0 45 44.999999" height="60" preserveAspectRatio="xMidYMid meet" version="1.0"><defs><filter x="0%" y="0%" width="100%" height="100%" id="c90cf12d4c"><feColorMatrix values="0 0 0 0 1 0 0 0 0 1 0 0 0 0 1 0 0 0 1 0" color-interpolation-filters="sRGB"/></filter><mask id="32f68d6f8b"><g filter="url(#c90cf12d4c)"><rect x="-4.5" width="54" fill="#000000" y="-4.5" height="53.999999" fill-opacity="0.35"/></g></mask><clipPath id="35c4168a05"><path d="M 2 1 L 13.878906 1 L 13.878906 12.960938 L 2 12.960938 Z M 2 1 " clip-rule="nonzero"/></clipPath><clipPath id="902b6366f2"><rect x="0" width="14" y="0" height="13"/></clipPath><clipPath id="348ab06475"><path d="M 30 0 L 42.035156 0 L 42.035156 12 L 30 12 Z M 30 0 " clip-rule="nonzero"/></clipPath><mask id="0e40df11da"><g filter="url(#c90cf12d4c)"><rect x="-4.5" width="54" fill="#000000" y="-4.5" height="53.999999" fill-opacity="0.35"/></g></mask><clipPath id="3b17cd31e3"><path d="M 0 0 L 12 0 L 12 11.761719 L 0 11.761719 Z M 0 0 " clip-rule="nonzero"/></clipPath><clipPath id="82e32b466f"><rect x="0" width="13" y="0" height="12"/></clipPath><clipPath id="1a9db63bde"><path d="M 1.535156 6 L 21 6 L 21 18 L 1.535156 18 Z M 1.535156 6 " clip-rule="nonzero"/></clipPath></defs><rect x="-4.5" width="54" fill="#ffffff" y="-4.5" height="53.999999" fill-opacity="1"/><rect x="-4.5" width="54" fill="#ffffff" y="-4.5" height="53.999999" fill-opacity="1"/><g mask="url(#32f68d6f8b)"><g transform="matrix(1, 0, 0, 1, 13, 0)"><g clip-path="url(#902b6366f2)"><g clip-path="url(#35c4168a05)"><path fill="#221f1f" d="M 2.074219 1.160156 L 2.074219 12.519531 L 13.316406 12.519531 " fill-opacity="1" fill-rule="nonzero"/></g></g></g></g><path fill="#0857de" d="M 30.792969 0.128906 L 12.433594 0.128906 C 10.828125 0.128906 9.453125 1.503906 9.453125 3.113281 L 9.453125 41.886719 C 9.453125 43.496094 10.828125 44.871094 12.433594 44.871094 L 38.9375 44.871094 C 40.542969 44.871094 41.917969 43.496094 41.917969 41.886719 L 41.917969 11.371094 Z M 30.792969 0.128906 " fill-opacity="1" fill-rule="nonzero"/><g clip-path="url(#348ab06475)"><g mask="url(#0e40df11da)"><g transform="matrix(1, 0, 0, 1, 30, 0)"><g clip-path="url(#82e32b466f)"><g clip-path="url(#3b17cd31e3)"><path fill="#221f1f" d="M 0.792969 0.128906 L 0.792969 11.371094 L 11.917969 11.371094 " fill-opacity="1" fill-rule="nonzero"/></g></g></g></g></g><g clip-path="url(#1a9db63bde)"><path fill="#ffffff" d="M 19.203125 17.335938 L 3.371094 17.335938 C 2.453125 17.335938 1.652344 16.535156 1.652344 15.617188 L 1.652344 8.390625 C 1.652344 7.472656 2.453125 6.667969 3.371094 6.667969 L 19.089844 6.667969 C 20.007812 6.667969 20.808594 7.472656 20.808594 8.390625 L 20.808594 15.730469 C 20.925781 16.648438 20.121094 17.335938 19.203125 17.335938 Z M 19.203125 17.335938 " fill-opacity="1" fill-rule="nonzero"/><path fill="#0857de" d="M 19.203125 17.566406 L 3.371094 17.566406 C 2.339844 17.566406 1.535156 16.765625 1.535156 15.730469 L 1.535156 8.390625 C 1.535156 7.355469 2.339844 6.554688 3.371094 6.554688 L 19.089844 6.554688 C 20.121094 6.554688 20.925781 7.355469 20.925781 8.390625 L 20.925781 15.730469 C 21.039062 16.648438 20.121094 17.566406 19.203125 17.566406 Z M 3.371094 6.78125 C 2.453125 6.78125 1.765625 7.472656 1.765625 8.390625 L 1.765625 15.730469 C 1.765625 16.648438 2.453125 17.335938 3.371094 17.335938 L 19.089844 17.335938 C 20.007812 17.335938 20.695312 16.648438 20.695312 15.730469 L 20.695312 8.390625 C 20.695312 7.472656 20.007812 6.78125 19.089844 6.78125 Z M 3.371094 6.78125 " fill-opacity="1" fill-rule="nonzero"/></g><path fill="#0857de" d="M 8.648438 14.355469 L 7.730469 12.976562 L 6.929688 14.355469 L 5.550781 14.355469 L 7.042969 11.945312 L 5.550781 9.652344 L 6.8125 9.652344 L 7.730469 11.027344 L 8.535156 9.652344 L 9.796875 9.652344 L 8.304688 11.945312 L 9.796875 14.238281 L 8.648438 14.238281 Z M 8.648438 14.355469 " fill-opacity="1" fill-rule="nonzero"/><path fill="#0857de" d="M 11.632812 13.4375 L 13.125 13.4375 L 13.125 14.355469 L 10.484375 14.355469 L 10.484375 9.765625 L 11.632812 9.765625 Z M 11.632812 13.4375 " fill-opacity="1" fill-rule="nonzero"/><path fill="#0857de" d="M 14.386719 14.238281 C 14.15625 14.125 13.925781 14.011719 13.699219 13.78125 C 13.582031 13.550781 13.46875 13.320312 13.46875 12.976562 L 14.617188 12.976562 C 14.617188 13.09375 14.730469 13.320312 14.84375 13.320312 C 14.960938 13.4375 15.074219 13.4375 15.1875 13.4375 C 15.304688 13.4375 15.53125 13.4375 15.53125 13.320312 C 15.648438 13.207031 15.648438 13.09375 15.648438 12.976562 C 15.648438 12.863281 15.648438 12.75 15.53125 12.75 C 15.417969 12.632812 15.417969 12.632812 15.304688 12.519531 C 15.1875 12.519531 15.074219 12.40625 14.84375 12.40625 C 14.5 12.289062 14.269531 12.175781 14.15625 12.175781 C 13.925781 12.058594 13.8125 11.945312 13.699219 11.714844 C 13.582031 11.488281 13.46875 11.257812 13.46875 11.027344 C 13.46875 10.570312 13.582031 10.222656 13.925781 9.996094 C 14.269531 9.765625 14.617188 9.652344 15.1875 9.652344 C 15.648438 9.652344 16.105469 9.765625 16.449219 9.996094 C 16.796875 10.222656 16.910156 10.570312 16.910156 11.027344 L 15.648438 11.027344 C 15.648438 10.914062 15.53125 10.796875 15.53125 10.683594 C 15.417969 10.570312 15.304688 10.570312 15.1875 10.570312 C 15.074219 10.570312 14.960938 10.570312 14.84375 10.683594 C 14.730469 10.796875 14.730469 10.914062 14.730469 11.027344 C 14.730469 11.140625 14.84375 11.257812 14.960938 11.371094 C 15.074219 11.488281 15.304688 11.601562 15.648438 11.601562 C 15.992188 11.714844 16.222656 11.832031 16.335938 11.945312 C 16.566406 12.058594 16.679688 12.175781 16.796875 12.40625 C 16.910156 12.632812 17.023438 12.863281 17.023438 13.09375 C 17.023438 13.320312 16.910156 13.550781 16.796875 13.78125 C 16.679688 14.011719 16.449219 14.125 16.222656 14.238281 C 15.992188 14.355469 15.648438 14.46875 15.304688 14.46875 C 14.960938 14.355469 14.730469 14.355469 14.386719 14.238281 Z M 14.386719 14.238281 " fill-opacity="1" fill-rule="nonzero"/><path fill="#ffffff" d="M 14.84375 23.53125 L 24.710938 23.53125 L 24.710938 26.285156 L 14.84375 26.285156 Z M 14.84375 23.53125 " fill-opacity="1" fill-rule="nonzero"/><path fill="#ffffff" d="M 14.84375 29.269531 L 24.710938 29.269531 L 24.710938 32.023438 L 14.84375 32.023438 Z M 14.84375 29.269531 " fill-opacity="1" fill-rule="nonzero"/><path fill="#ffffff" d="M 14.84375 35.121094 L 24.710938 35.121094 L 24.710938 37.871094 L 14.84375 37.871094 Z M 14.84375 35.121094 " fill-opacity="1" fill-rule="nonzero"/><path fill="#ffffff" d="M 26.660156 23.53125 L 36.527344 23.53125 L 36.527344 26.285156 L 26.660156 26.285156 Z M 26.660156 23.53125 " fill-opacity="1" fill-rule="nonzero"/><path fill="#ffffff" d="M 26.660156 29.269531 L 36.527344 29.269531 L 36.527344 32.023438 L 26.660156 32.023438 Z M 26.660156 29.269531 " fill-opacity="1" fill-rule="nonzero"/><path fill="#ffffff" d="M 26.660156 35.121094 L 36.527344 35.121094 L 36.527344 37.871094 L 26.660156 37.871094 Z M 26.660156 35.121094 " fill-opacity="1" fill-rule="nonzero"/></svg>