<svg xmlns="http://www.w3.org/2000/svg" xmlns:xlink="http://www.w3.org/1999/xlink" width="60" zoomAndPan="magnify" viewBox="0 0 45 44.999999" height="60" preserveAspectRatio="xMidYMid meet" version="1.0"><defs><clipPath id="77b0d4417b"><path d="M 0 4.5 L 45 4.5 L 45 42.75 L 0 42.75 Z M 0 4.5 " clip-rule="nonzero"/></clipPath><clipPath id="47bc569369"><path d="M 2.101562 7.199219 L 42.75 7.199219 L 42.75 30.300781 L 2.101562 30.300781 Z M 2.101562 7.199219 " clip-rule="nonzero"/></clipPath><clipPath id="f0f2ca1642"><path d="M 17 12 L 28 12 L 28 30.539062 L 17 30.539062 Z M 17 12 " clip-rule="nonzero"/></clipPath><clipPath id="deef2e3c74"><path d="M 13.417969 9.539062 L 31.417969 9.539062 L 31.417969 20 L 13.417969 20 Z M 13.417969 9.539062 " clip-rule="nonzero"/></clipPath></defs><rect x="-4.5" width="54" fill="#ffffff" y="-4.5" height="53.999999" fill-opacity="1"/><rect x="-4.5" width="54" fill="#ffffff" y="-4.5" height="53.999999" fill-opacity="1"/><g clip-path="url(#77b0d4417b)"><path fill="#0857de" d="M 2.441406 6.742188 L 42.902344 6.742188 L 42.902344 30.902344 L 2.097656 30.902344 L 2.097656 6.742188 Z M 10.453125 14.980469 C 10.320312 14.84375 10.324219 14.628906 10.460938 14.496094 C 10.597656 14.367188 10.816406 14.371094 10.945312 14.507812 C 11.667969 15.257812 12.160156 16.3125 12.394531 17.417969 C 12.640625 18.558594 12.613281 19.769531 12.289062 20.761719 C 12.230469 20.941406 12.035156 21.039062 11.855469 20.980469 C 11.675781 20.921875 11.578125 20.730469 11.636719 20.550781 C 11.925781 19.671875 11.945312 18.589844 11.726562 17.5625 C 11.515625 16.570312 11.082031 15.636719 10.453125 14.980469 Z M 10.550781 22.324219 C 10.683594 22.1875 10.898438 22.183594 11.035156 22.316406 C 11.171875 22.449219 11.175781 22.664062 11.042969 22.800781 C 10.941406 22.90625 10.832031 23.007812 10.714844 23.109375 C 10.605469 23.207031 10.484375 23.300781 10.359375 23.394531 C 10.210938 23.507812 9.996094 23.480469 9.882812 23.328125 C 9.769531 23.175781 9.800781 22.960938 9.949219 22.847656 C 10.058594 22.769531 10.164062 22.683594 10.265625 22.59375 C 10.363281 22.507812 10.460938 22.417969 10.550781 22.324219 Z M 29.925781 30.21875 L 29.925781 10.375 C 29.925781 10.1875 30.078125 10.03125 30.269531 10.03125 L 39.234375 10.03125 C 39.425781 10.03125 39.578125 10.1875 39.578125 10.375 L 39.578125 30.21875 L 42.214844 30.21875 L 42.214844 7.429688 L 2.785156 7.429688 L 2.785156 30.21875 L 6.488281 30.21875 L 7.355469 24.847656 C 7.226562 24.785156 7.105469 24.71875 6.984375 24.644531 C 5.828125 23.941406 5.085938 22.824219 4.75 21.597656 C 4.410156 20.382812 4.46875 19.054688 4.90625 17.917969 C 5.011719 17.636719 5.144531 17.367188 5.304688 17.105469 C 5.566406 16.671875 5.84375 16.246094 6.128906 15.808594 C 7.347656 13.9375 8.652344 11.929688 8.109375 10.589844 C 8.035156 10.414062 8.121094 10.214844 8.296875 10.144531 C 8.402344 10.101562 8.511719 10.113281 8.601562 10.167969 C 10.78125 11.246094 12.464844 13.144531 13.421875 15.257812 C 13.945312 16.414062 14.253906 17.636719 14.304688 18.824219 C 14.359375 20.023438 14.152344 21.1875 13.644531 22.21875 C 13.105469 23.316406 12.234375 24.253906 10.980469 24.914062 L 11.542969 30.21875 L 17.554688 30.21875 L 17.554688 28.890625 C 17.554688 28.683594 17.640625 28.496094 17.773438 28.363281 C 17.910156 28.226562 18.097656 28.140625 18.304688 28.140625 L 19.261719 28.140625 L 19.261719 25.398438 C 19.261719 25.140625 19.367188 24.90625 19.535156 24.738281 C 19.664062 24.609375 19.824219 24.519531 20.007812 24.480469 C 20.074219 23.746094 20.050781 21.714844 18.019531 20.46875 L 18.023438 20.46875 C 17.917969 20.402344 17.871094 20.273438 17.917969 20.15625 L 21.757812 10.304688 C 21.789062 10.195312 21.886719 10.117188 22.003906 10.117188 C 22.121094 10.117188 22.21875 10.195312 22.25 10.304688 L 26.085938 20.136719 C 26.140625 20.253906 26.101562 20.398438 25.988281 20.46875 C 23.957031 21.714844 23.933594 23.746094 24 24.480469 C 24.183594 24.519531 24.34375 24.609375 24.472656 24.738281 C 24.644531 24.90625 24.75 25.140625 24.75 25.398438 L 24.75 28.140625 L 25.703125 28.140625 C 25.910156 28.140625 26.097656 28.226562 26.234375 28.363281 C 26.367188 28.496094 26.453125 28.683594 26.453125 28.890625 L 26.453125 30.21875 Z M 38.890625 30.21875 L 38.890625 10.71875 L 30.613281 10.71875 L 30.613281 30.21875 Z M 7.527344 30.21875 L 10.511719 30.21875 L 9.988281 25.289062 L 8.332031 25.238281 Z M 18.585938 30.21875 L 25.421875 30.21875 L 25.421875 29.171875 L 18.585938 29.171875 Z M 19.945312 28.140625 L 24.0625 28.140625 L 24.0625 25.398438 C 24.0625 25.332031 24.03125 25.269531 23.988281 25.222656 C 23.941406 25.175781 23.878906 25.148438 23.808594 25.148438 L 20.199219 25.148438 C 20.128906 25.148438 20.066406 25.175781 20.019531 25.222656 C 19.976562 25.269531 19.945312 25.332031 19.945312 25.398438 Z M 23.484375 24.460938 C 23.421875 23.601562 23.507812 21.507812 25.535156 20.144531 L 22.261719 11.746094 L 22.261719 17.421875 C 22.476562 17.472656 22.667969 17.582031 22.820312 17.734375 C 23.03125 17.945312 23.160156 18.230469 23.160156 18.550781 C 23.160156 18.871094 23.03125 19.15625 22.820312 19.367188 C 22.613281 19.578125 22.324219 19.707031 22.003906 19.707031 C 21.683594 19.707031 21.394531 19.578125 21.1875 19.367188 C 20.976562 19.15625 20.847656 18.867188 20.847656 18.550781 C 20.847656 18.230469 20.976562 17.941406 21.1875 17.734375 C 21.339844 17.582031 21.53125 17.472656 21.746094 17.421875 L 21.746094 11.746094 L 18.472656 20.144531 C 20.5 21.507812 20.585938 23.601562 20.523438 24.460938 Z M 22.335938 18.21875 C 22.25 18.132812 22.132812 18.082031 22.003906 18.082031 C 21.875 18.082031 21.757812 18.132812 21.671875 18.21875 C 21.589844 18.304688 21.535156 18.421875 21.535156 18.550781 C 21.535156 18.679688 21.589844 18.796875 21.671875 18.882812 C 21.757812 18.964844 21.875 19.019531 22.003906 19.019531 C 22.132812 19.019531 22.25 18.964844 22.335938 18.882812 C 22.421875 18.796875 22.472656 18.679688 22.472656 18.550781 C 22.472656 18.417969 22.421875 18.300781 22.335938 18.21875 Z M 14.433594 39.980469 L 16.25 39.980469 C 16.679688 39.519531 17.011719 38.992188 17.253906 38.4375 C 17.507812 37.847656 17.667969 37.226562 17.738281 36.625 L 2.527344 36.625 C 1.832031 36.625 1.199219 36.339844 0.742188 35.882812 C 0.285156 35.425781 0 34.792969 0 34.097656 L 0 7.046875 C 0 6.351562 0.285156 5.71875 0.742188 5.261719 C 1.199219 4.804688 1.832031 4.519531 2.527344 4.519531 L 42.472656 4.519531 C 43.167969 4.519531 43.800781 4.804688 44.257812 5.261719 C 44.714844 5.71875 45 6.351562 45 7.046875 L 45 34.097656 C 45 34.792969 44.714844 35.425781 44.257812 35.882812 C 43.800781 36.339844 43.167969 36.625 42.472656 36.625 L 27.261719 36.625 C 27.332031 37.226562 27.492188 37.847656 27.746094 38.4375 C 27.988281 38.992188 28.320312 39.519531 28.75 39.980469 L 30.566406 39.980469 C 30.976562 39.980469 31.347656 40.148438 31.617188 40.417969 C 31.886719 40.6875 32.054688 41.058594 32.054688 41.46875 L 32.054688 42.4375 C 32.054688 42.722656 31.824219 42.953125 31.539062 42.953125 L 13.460938 42.953125 C 13.175781 42.953125 12.945312 42.722656 12.945312 42.4375 L 12.945312 41.46875 C 12.945312 41.058594 13.113281 40.6875 13.382812 40.417969 C 13.652344 40.148438 14.023438 39.980469 14.433594 39.980469 Z M 17.144531 39.980469 L 27.855469 39.980469 C 27.554688 39.582031 27.3125 39.152344 27.121094 38.710938 C 26.824219 38.03125 26.648438 37.3125 26.570312 36.625 L 18.429688 36.625 C 18.351562 37.3125 18.175781 38.03125 17.878906 38.710938 C 17.6875 39.152344 17.445312 39.582031 17.144531 39.980469 Z M 30.566406 41.011719 L 14.433594 41.011719 C 14.308594 41.011719 14.195312 41.0625 14.113281 41.144531 C 14.027344 41.230469 13.976562 41.34375 13.976562 41.46875 L 13.976562 41.921875 L 31.023438 41.921875 L 31.023438 41.46875 C 31.023438 41.34375 30.972656 41.230469 30.886719 41.144531 C 30.804688 41.0625 30.691406 41.011719 30.566406 41.011719 Z M 22.5 32.25 C 22.871094 32.25 23.207031 32.402344 23.449219 32.644531 C 23.695312 32.890625 23.84375 33.226562 23.84375 33.597656 C 23.84375 33.96875 23.695312 34.304688 23.449219 34.546875 L 23.433594 34.5625 C 23.191406 34.796875 22.863281 34.941406 22.5 34.941406 C 22.128906 34.941406 21.792969 34.789062 21.550781 34.546875 C 21.304688 34.304688 21.15625 33.964844 21.15625 33.597656 C 21.15625 33.226562 21.304688 32.890625 21.550781 32.648438 L 21.550781 32.644531 C 21.792969 32.402344 22.128906 32.25 22.5 32.25 Z M 23.085938 33.011719 C 22.9375 32.859375 22.730469 32.765625 22.5 32.765625 C 22.269531 32.765625 22.0625 32.859375 21.914062 33.011719 L 21.914062 33.007812 C 21.761719 33.160156 21.671875 33.367188 21.671875 33.597656 C 21.671875 33.824219 21.761719 34.035156 21.914062 34.183594 C 22.0625 34.332031 22.269531 34.425781 22.5 34.425781 C 22.722656 34.425781 22.925781 34.335938 23.074219 34.195312 L 23.085938 34.183594 C 23.234375 34.03125 23.328125 33.824219 23.328125 33.597656 C 23.328125 33.367188 23.234375 33.160156 23.085938 33.011719 Z M 42.472656 5.550781 L 2.527344 5.550781 C 2.117188 5.550781 1.742188 5.71875 1.472656 5.988281 C 1.199219 6.261719 1.03125 6.636719 1.03125 7.046875 L 1.03125 34.097656 C 1.03125 34.507812 1.199219 34.882812 1.472656 35.152344 C 1.742188 35.425781 2.117188 35.59375 2.527344 35.59375 L 42.472656 35.59375 C 42.882812 35.59375 43.257812 35.425781 43.527344 35.152344 C 43.800781 34.882812 43.96875 34.507812 43.96875 34.097656 L 43.96875 7.046875 C 43.96875 6.636719 43.800781 6.261719 43.527344 5.988281 C 43.257812 5.71875 42.882812 5.550781 42.472656 5.550781 Z M 7.679688 24.246094 C 7.753906 24.210938 7.839844 24.195312 7.925781 24.199219 L 10.464844 24.277344 C 10.53125 24.28125 10.589844 24.292969 10.644531 24.316406 C 11.773438 23.726562 12.554688 22.890625 13.03125 21.917969 C 13.484375 20.992188 13.667969 19.941406 13.621094 18.851562 C 13.574219 17.753906 13.285156 16.621094 12.796875 15.539062 C 11.992188 13.765625 10.644531 12.15625 8.914062 11.117188 C 9 12.652344 7.816406 14.46875 6.703125 16.183594 C 6.414062 16.625 6.128906 17.0625 5.886719 17.460938 C 5.757812 17.675781 5.644531 17.910156 5.546875 18.160156 C 5.164062 19.164062 5.109375 20.339844 5.410156 21.417969 C 5.703125 22.484375 6.34375 23.457031 7.339844 24.058594 C 7.449219 24.125 7.5625 24.1875 7.679688 24.246094 Z M 34.574219 12.789062 C 34.433594 12.789062 34.316406 12.671875 34.316406 12.53125 C 34.316406 12.386719 34.433594 12.273438 34.574219 12.273438 L 37.410156 12.273438 C 37.550781 12.273438 37.664062 12.386719 37.664062 12.53125 C 37.664062 12.671875 37.550781 12.789062 37.410156 12.789062 Z M 34.574219 19.191406 C 34.433594 19.191406 34.316406 19.078125 34.316406 18.9375 C 34.316406 18.792969 34.433594 18.679688 34.574219 18.679688 L 37.410156 18.679688 C 37.550781 18.679688 37.664062 18.792969 37.664062 18.9375 C 37.664062 19.078125 37.550781 19.191406 37.410156 19.191406 Z M 34.574219 25.597656 C 34.433594 25.597656 34.316406 25.484375 34.316406 25.339844 C 34.316406 25.199219 34.433594 25.082031 34.574219 25.082031 L 37.410156 25.082031 C 37.550781 25.082031 37.664062 25.199219 37.664062 25.339844 C 37.664062 25.484375 37.550781 25.597656 37.410156 25.597656 Z M 35.84375 15.992188 C 35.703125 15.992188 35.585938 15.875 35.585938 15.734375 C 35.585938 15.589844 35.703125 15.476562 35.84375 15.476562 L 37.410156 15.476562 C 37.550781 15.476562 37.664062 15.589844 37.664062 15.734375 C 37.664062 15.875 37.550781 15.992188 37.410156 15.992188 Z M 35.84375 22.394531 C 35.703125 22.394531 35.585938 22.28125 35.585938 22.136719 C 35.585938 21.996094 35.703125 21.878906 35.84375 21.878906 L 37.410156 21.878906 C 37.550781 21.878906 37.664062 21.996094 37.664062 22.136719 C 37.664062 22.28125 37.550781 22.394531 37.410156 22.394531 Z M 35.84375 28.800781 C 35.703125 28.800781 35.585938 28.6875 35.585938 28.542969 C 35.585938 28.402344 35.703125 28.285156 35.84375 28.285156 L 37.410156 28.285156 C 37.550781 28.285156 37.664062 28.402344 37.664062 28.542969 C 37.664062 28.6875 37.550781 28.800781 37.410156 28.800781 Z M 35.84375 28.800781 " fill-opacity="1" fill-rule="nonzero"/></g><g clip-path="url(#47bc569369)"><path fill="#0857de" d="M 2.101562 7.199219 L 42.707031 7.199219 L 42.707031 30.300781 L 2.101562 30.300781 Z M 2.101562 7.199219 " fill-opacity="1" fill-rule="nonzero"/></g><g clip-path="url(#f0f2ca1642)"><path fill="#ffffff" d="M 21.96875 20.261719 C 22.042969 20.242188 22.078125 20.195312 22.078125 20.117188 L 22.078125 12.863281 C 22.078125 12.742188 22.019531 12.683594 21.902344 12.683594 L 21.710938 12.683594 C 21.605469 12.683594 21.53125 12.734375 21.492188 12.832031 L 17.707031 22.019531 C 17.625 22.21875 17.617188 22.421875 17.691406 22.628906 L 18.757812 25.621094 L 18.429688 25.621094 C 18.339844 25.621094 18.265625 25.652344 18.203125 25.714844 C 18.140625 25.777344 18.109375 25.855469 18.109375 25.941406 L 18.109375 27.246094 C 18.109375 27.332031 18.140625 27.410156 18.203125 27.472656 C 18.265625 27.535156 18.339844 27.566406 18.429688 27.566406 L 18.660156 27.566406 L 18.660156 29.96875 C 18.660156 30.058594 18.691406 30.136719 18.753906 30.199219 C 18.820312 30.261719 18.894531 30.292969 18.984375 30.292969 L 25.988281 30.292969 C 26.078125 30.292969 26.152344 30.261719 26.21875 30.199219 C 26.28125 30.136719 26.3125 30.058594 26.3125 29.96875 L 26.3125 28.152344 C 26.3125 28.054688 26.261719 28.003906 26.164062 28.003906 C 26.0625 28.003906 26.015625 28.054688 26.015625 28.152344 L 26.015625 29.96875 C 26.015625 29.988281 26.003906 29.996094 25.988281 29.996094 L 18.984375 29.996094 C 18.96875 29.996094 18.957031 29.988281 18.957031 29.96875 L 18.957031 27.566406 L 26.542969 27.566406 C 26.632812 27.566406 26.707031 27.535156 26.769531 27.472656 C 26.832031 27.410156 26.863281 27.332031 26.863281 27.246094 L 26.863281 25.941406 C 26.863281 25.855469 26.832031 25.777344 26.769531 25.714844 C 26.707031 25.652344 26.632812 25.621094 26.542969 25.621094 L 26.214844 25.621094 L 27.28125 22.628906 C 27.355469 22.421875 27.347656 22.21875 27.265625 22.019531 L 23.480469 12.832031 C 23.441406 12.734375 23.367188 12.683594 23.261719 12.683594 L 23.070312 12.683594 C 22.953125 12.683594 22.894531 12.742188 22.894531 12.863281 L 22.894531 20.117188 C 22.894531 20.195312 22.929688 20.242188 23.003906 20.261719 C 23.410156 20.382812 23.730469 20.617188 23.972656 20.960938 C 24.21875 21.304688 24.328125 21.6875 24.300781 22.109375 C 24.253906 23.003906 23.453125 23.789062 22.558594 23.824219 C 22.335938 23.832031 22.121094 23.804688 21.910156 23.734375 C 21.699219 23.664062 21.507812 23.558594 21.335938 23.417969 C 21.164062 23.277344 21.023438 23.113281 20.914062 22.917969 C 20.800781 22.726562 20.726562 22.523438 20.691406 22.304688 C 20.65625 22.085938 20.660156 21.867188 20.703125 21.648438 C 20.746094 21.433594 20.828125 21.230469 20.945312 21.042969 C 21.0625 20.855469 21.207031 20.695312 21.386719 20.558594 C 21.5625 20.425781 21.757812 20.328125 21.96875 20.261719 Z M 26.566406 25.941406 L 26.566406 27.246094 C 26.566406 27.261719 26.558594 27.265625 26.542969 27.265625 L 18.429688 27.265625 C 18.414062 27.265625 18.40625 27.261719 18.40625 27.246094 L 18.40625 25.941406 C 18.40625 25.925781 18.414062 25.921875 18.429688 25.921875 L 26.542969 25.921875 C 26.558594 25.921875 26.566406 25.925781 26.566406 25.941406 Z M 26.566406 25.941406 " fill-opacity="1" fill-rule="nonzero"/></g><path fill="#ffffff" d="M 19.742188 11.042969 C 19.09375 11.308594 18.496094 11.664062 17.949219 12.105469 C 17.402344 12.546875 16.933594 13.058594 16.535156 13.636719 C 16.140625 14.21875 15.832031 14.839844 15.617188 15.511719 C 15.402344 16.179688 15.289062 16.863281 15.273438 17.566406 L 14.667969 17.566406 C 14.582031 17.566406 14.503906 17.597656 14.441406 17.660156 C 14.378906 17.722656 14.347656 17.800781 14.347656 17.890625 L 14.347656 19.394531 C 14.347656 19.484375 14.378906 19.558594 14.441406 19.621094 C 14.503906 19.683594 14.582031 19.714844 14.667969 19.714844 L 16.175781 19.714844 C 16.261719 19.714844 16.339844 19.683594 16.402344 19.621094 C 16.464844 19.558594 16.496094 19.484375 16.496094 19.394531 L 16.496094 17.890625 C 16.496094 17.800781 16.464844 17.722656 16.402344 17.660156 C 16.339844 17.597656 16.261719 17.566406 16.175781 17.566406 L 15.574219 17.566406 C 15.585938 16.894531 15.695312 16.238281 15.902344 15.597656 C 16.109375 14.957031 16.402344 14.359375 16.78125 13.804688 C 17.164062 13.25 17.617188 12.761719 18.136719 12.335938 C 18.660156 11.914062 19.234375 11.574219 19.855469 11.316406 C 19.949219 11.28125 19.976562 11.214844 19.9375 11.125 C 19.898438 11.03125 19.835938 11.003906 19.742188 11.042969 Z M 16.175781 17.863281 C 16.191406 17.863281 16.199219 17.871094 16.199219 17.890625 L 16.199219 19.394531 C 16.199219 19.410156 16.191406 19.417969 16.175781 19.417969 L 14.667969 19.417969 C 14.652344 19.417969 14.644531 19.410156 14.644531 19.394531 L 14.644531 17.890625 C 14.644531 17.871094 14.652344 17.863281 14.667969 17.863281 Z M 16.175781 17.863281 " fill-opacity="1" fill-rule="nonzero"/><g clip-path="url(#deef2e3c74)"><path fill="#ffffff" d="M 30.476562 9.578125 C 30.207031 9.578125 29.972656 9.664062 29.769531 9.839844 C 29.570312 10.015625 29.449219 10.238281 29.414062 10.503906 L 23.5625 10.503906 L 23.5625 9.898438 C 23.5625 9.808594 23.527344 9.734375 23.464844 9.671875 C 23.402344 9.609375 23.328125 9.578125 23.238281 9.578125 L 21.734375 9.578125 C 21.644531 9.578125 21.570312 9.609375 21.507812 9.671875 C 21.445312 9.734375 21.410156 9.808594 21.410156 9.898438 L 21.410156 10.503906 L 15.558594 10.503906 C 15.535156 10.320312 15.46875 10.15625 15.359375 10.011719 C 15.25 9.863281 15.113281 9.75 14.945312 9.675781 C 14.777344 9.597656 14.605469 9.566406 14.421875 9.578125 C 14.238281 9.59375 14.070312 9.648438 13.917969 9.746094 C 13.761719 9.847656 13.640625 9.976562 13.554688 10.136719 C 13.464844 10.296875 13.421875 10.46875 13.421875 10.652344 C 13.421875 10.835938 13.464844 11.007812 13.554688 11.167969 C 13.640625 11.328125 13.761719 11.457031 13.917969 11.554688 C 14.070312 11.65625 14.238281 11.710938 14.421875 11.722656 C 14.605469 11.734375 14.777344 11.703125 14.945312 11.628906 C 15.113281 11.550781 15.25 11.441406 15.359375 11.292969 C 15.46875 11.144531 15.535156 10.980469 15.558594 10.800781 L 21.410156 10.800781 L 21.410156 11.402344 C 21.410156 11.492188 21.445312 11.570312 21.507812 11.632812 C 21.570312 11.695312 21.644531 11.726562 21.734375 11.726562 L 23.238281 11.726562 C 23.328125 11.726562 23.402344 11.695312 23.464844 11.632812 C 23.527344 11.570312 23.5625 11.492188 23.5625 11.402344 L 23.5625 10.882812 C 26.855469 11.398438 29.328125 14.226562 29.398438 17.566406 L 28.796875 17.566406 C 28.710938 17.566406 28.632812 17.597656 28.570312 17.660156 C 28.507812 17.722656 28.476562 17.800781 28.476562 17.890625 L 28.476562 19.394531 C 28.476562 19.484375 28.507812 19.558594 28.570312 19.621094 C 28.632812 19.683594 28.710938 19.714844 28.796875 19.714844 L 30.304688 19.714844 C 30.390625 19.714844 30.46875 19.683594 30.53125 19.621094 C 30.59375 19.558594 30.625 19.484375 30.625 19.394531 L 30.625 17.890625 C 30.625 17.800781 30.59375 17.722656 30.53125 17.660156 C 30.46875 17.597656 30.390625 17.566406 30.304688 17.566406 L 29.699219 17.566406 C 29.683594 16.804688 29.546875 16.058594 29.296875 15.339844 C 29.042969 14.617188 28.6875 13.953125 28.222656 13.34375 C 27.761719 12.734375 27.214844 12.214844 26.585938 11.78125 C 25.957031 11.34375 25.273438 11.019531 24.542969 10.800781 L 29.414062 10.800781 C 29.453125 11.085938 29.585938 11.316406 29.808594 11.492188 C 30.035156 11.671875 30.289062 11.746094 30.574219 11.722656 C 30.863281 11.695312 31.097656 11.574219 31.285156 11.355469 C 31.476562 11.140625 31.5625 10.886719 31.550781 10.601562 C 31.535156 10.316406 31.425781 10.074219 31.21875 9.875 C 31.011719 9.675781 30.761719 9.578125 30.476562 9.578125 Z M 14.496094 11.429688 C 14.496094 11.429688 14.492188 11.429688 14.492188 11.429688 C 14.65625 11.261719 14.765625 10.976562 14.765625 10.652344 C 14.765625 10.328125 14.65625 10.039062 14.492188 9.875 C 14.492188 9.875 14.496094 9.875 14.496094 9.875 C 14.710938 9.875 14.894531 9.949219 15.046875 10.101562 C 15.199219 10.253906 15.273438 10.4375 15.273438 10.652344 C 15.273438 10.867188 15.199219 11.050781 15.046875 11.199219 C 14.894531 11.351562 14.710938 11.429688 14.496094 11.429688 Z M 23.261719 11.402344 C 23.261719 11.421875 23.253906 11.429688 23.238281 11.429688 L 21.734375 11.429688 C 21.71875 11.429688 21.710938 11.421875 21.710938 11.402344 L 21.710938 9.898438 C 21.710938 9.882812 21.71875 9.875 21.734375 9.875 L 23.238281 9.875 C 23.253906 9.875 23.261719 9.882812 23.261719 9.898438 Z M 30.304688 17.863281 C 30.320312 17.863281 30.328125 17.871094 30.328125 17.890625 L 30.328125 19.394531 C 30.328125 19.410156 30.320312 19.417969 30.304688 19.417969 L 28.796875 19.417969 C 28.78125 19.417969 28.773438 19.410156 28.773438 19.394531 L 28.773438 17.890625 C 28.773438 17.871094 28.78125 17.863281 28.796875 17.863281 Z M 30.476562 11.429688 C 30.476562 11.429688 30.472656 11.429688 30.472656 11.429688 C 30.636719 11.261719 30.742188 10.976562 30.742188 10.652344 C 30.742188 10.328125 30.636719 10.039062 30.472656 9.875 C 30.472656 9.875 30.476562 9.875 30.476562 9.875 C 30.691406 9.875 30.875 9.949219 31.023438 10.101562 C 31.175781 10.253906 31.253906 10.4375 31.253906 10.652344 C 31.253906 10.867188 31.175781 11.050781 31.023438 11.199219 C 30.875 11.351562 30.691406 11.429688 30.476562 11.429688 Z M 30.476562 11.429688 " fill-opacity="1" fill-rule="nonzero"/></g></svg>