<svg xmlns="http://www.w3.org/2000/svg" xmlns:xlink="http://www.w3.org/1999/xlink" width="60" zoomAndPan="magnify" viewBox="0 0 45 44.999999" height="60" preserveAspectRatio="xMidYMid meet" version="1.0"><defs><clipPath id="23e180b60c"><path d="M 10 36 L 39 36 L 39 43.191406 L 10 43.191406 Z M 10 36 " clip-rule="nonzero"/></clipPath><clipPath id="8cfc46b2e9"><path d="M 40 21.386719 L 43 21.386719 L 43 27 L 40 27 Z M 40 21.386719 " clip-rule="nonzero"/></clipPath><clipPath id="cb2b488145"><path d="M 39 34 L 45 34 L 45 41.636719 L 39 41.636719 Z M 39 34 " clip-rule="nonzero"/></clipPath></defs><rect x="-4.5" width="54" fill="#ffffff" y="-4.5" height="53.999999" fill-opacity="1"/><rect x="-4.5" width="54" fill="#ffffff" y="-4.5" height="53.999999" fill-opacity="1"/><path fill="#0857de" d="M 14.242188 15.644531 C 16.175781 15.25 17.984375 14.539062 19.667969 13.507812 C 22.144531 11.929688 24.207031 9.925781 25.859375 7.492188 C 26 7.242188 26.1875 7.03125 26.421875 6.863281 C 26.613281 6.835938 26.804688 6.839844 26.992188 6.878906 C 27.378906 7.398438 27.730469 7.941406 28.046875 8.503906 C 28.945312 9.949219 29.992188 11.28125 31.183594 12.496094 C 32.136719 13.492188 33.167969 14.398438 34.273438 15.222656 C 34.660156 14.070312 34.796875 12.886719 34.691406 11.675781 C 34.542969 10.082031 34.042969 8.605469 33.199219 7.25 C 32.539062 6.144531 31.707031 5.195312 30.703125 4.394531 C 29.589844 3.476562 28.335938 2.816406 26.949219 2.417969 C 25.144531 1.925781 23.339844 1.9375 21.539062 2.449219 C 19.832031 2.921875 18.34375 3.777344 17.074219 5.011719 C 15.871094 6.207031 14.972656 7.601562 14.386719 9.195312 C 14.007812 10.261719 13.820312 11.363281 13.820312 12.496094 C 13.808594 13.566406 13.949219 14.617188 14.242188 15.644531 Z M 14.242188 15.644531 " fill-opacity="1" fill-rule="nonzero"/><path fill="#0857de" d="M 32.046875 22.285156 C 32.035156 22.355469 32.042969 22.425781 32.066406 22.492188 C 32.089844 22.558594 32.128906 22.617188 32.179688 22.667969 C 32.230469 22.714844 32.289062 22.75 32.359375 22.773438 C 32.425781 22.792969 32.496094 22.796875 32.566406 22.785156 C 32.835938 22.648438 33.046875 22.449219 33.203125 22.1875 C 33.710938 21.523438 33.984375 20.769531 34.03125 19.933594 C 34.046875 18.960938 33.828125 18.039062 33.367188 17.179688 C 33.15625 16.828125 33.070312 16.390625 32.71875 16.140625 C 31.550781 15.152344 30.449219 14.09375 29.40625 12.976562 C 28.421875 11.886719 27.539062 10.726562 26.753906 9.488281 C 26.683594 9.410156 26.652344 9.25 26.519531 9.285156 C 25.574219 10.5625 24.511719 11.742188 23.332031 12.8125 C 21.027344 14.84375 18.394531 16.257812 15.425781 17.050781 C 15.304688 17.109375 15.214844 17.199219 15.152344 17.320312 C 14.539062 18.394531 14.359375 19.539062 14.617188 20.75 C 14.816406 21.527344 15.21875 22.171875 15.828125 22.691406 C 15.96875 22.792969 16.121094 22.808594 16.277344 22.734375 C 16.4375 22.660156 16.523438 22.539062 16.535156 22.363281 C 16.542969 22.113281 16.34375 21.933594 16.234375 21.726562 C 15.925781 21.25 15.796875 20.730469 15.84375 20.167969 C 15.851562 20.0625 15.878906 19.964844 15.925781 19.871094 C 15.976562 19.777344 16.042969 19.699219 16.125 19.632812 C 16.207031 19.570312 16.296875 19.523438 16.398438 19.496094 C 16.5 19.46875 16.601562 19.464844 16.707031 19.484375 C 17.035156 19.558594 17.152344 19.90625 17.269531 20.183594 C 17.667969 21.191406 18.230469 22.101562 18.960938 22.902344 C 19.691406 23.707031 20.539062 24.355469 21.507812 24.847656 C 22.707031 25.519531 23.980469 25.71875 25.324219 25.441406 C 26.84375 25.089844 28.15625 24.367188 29.269531 23.273438 C 30.238281 22.285156 30.957031 21.140625 31.421875 19.839844 C 31.457031 19.753906 31.511719 19.679688 31.582031 19.617188 C 31.652344 19.554688 31.734375 19.507812 31.824219 19.484375 C 31.914062 19.457031 32.007812 19.453125 32.101562 19.472656 C 32.195312 19.488281 32.277344 19.523438 32.355469 19.582031 C 32.707031 19.941406 32.808594 20.359375 32.660156 20.839844 C 32.585938 21.371094 32.191406 21.777344 32.046875 22.285156 Z M 32.046875 22.285156 " fill-opacity="1" fill-rule="nonzero"/><path fill="#0857de" d="M 11.234375 18.679688 C 11.34375 18.085938 11.214844 17.550781 10.851562 17.066406 C 10.179688 16.085938 9.285156 15.390625 8.164062 14.984375 C 7.371094 14.675781 6.546875 14.523438 5.691406 14.527344 C 4.835938 14.53125 4.015625 14.691406 3.222656 15.011719 C 2.039062 15.449219 1.132812 16.214844 0.507812 17.308594 C 0.175781 17.925781 0.167969 18.546875 0.484375 19.171875 C 1.222656 20.777344 1.984375 22.371094 2.769531 23.949219 C 4.75 23.929688 6.734375 23.941406 8.714844 23.941406 C 9.402344 22.613281 10.058594 21.269531 10.714844 19.921875 C 10.921875 19.523438 11.09375 19.109375 11.234375 18.679688 Z M 11.234375 18.679688 " fill-opacity="1" fill-rule="nonzero"/><path fill="#0857de" d="M 3.171875 25.625 C 3.167969 26.246094 3.160156 26.867188 3.179688 27.488281 C 4.894531 27.476562 6.609375 27.484375 8.320312 27.480469 C 8.324219 26.863281 8.320312 26.25 8.328125 25.632812 C 6.609375 25.609375 4.890625 25.605469 3.171875 25.625 Z M 3.171875 25.625 " fill-opacity="1" fill-rule="nonzero"/><path fill="#0857de" d="M 11.335938 35.105469 C 12.59375 35.480469 13.878906 35.757812 15.179688 35.9375 C 18.53125 36.441406 21.898438 36.667969 25.285156 36.621094 C 27.207031 36.621094 29.121094 36.496094 31.023438 36.238281 C 32.746094 36.0625 34.445312 35.777344 36.128906 35.382812 C 36.527344 35.277344 36.933594 35.207031 37.335938 35.113281 C 37.496094 35.085938 37.550781 34.921875 37.601562 34.789062 C 37.324219 34.089844 36.90625 33.488281 36.347656 32.984375 C 35.792969 32.476562 35.152344 32.121094 34.429688 31.910156 C 33.257812 31.5625 32.039062 31.398438 30.855469 31.09375 C 30.09375 30.917969 29.429688 30.558594 28.859375 30.023438 C 28.175781 29.269531 27.847656 28.386719 27.871094 27.367188 C 27.8125 27.070312 27.996094 26.6875 27.722656 26.464844 C 27.53125 26.328125 27.300781 26.453125 27.117188 26.535156 C 26.214844 26.964844 25.265625 27.179688 24.269531 27.179688 C 23.273438 27.179688 22.324219 26.96875 21.421875 26.542969 C 21.183594 26.410156 20.777344 26.332031 20.660156 26.660156 C 20.671875 27.117188 20.652344 27.574219 20.605469 28.027344 C 20.558594 28.382812 20.460938 28.726562 20.3125 29.050781 C 20.164062 29.375 19.96875 29.671875 19.730469 29.941406 C 19.488281 30.207031 19.214844 30.429688 18.90625 30.613281 C 18.597656 30.796875 18.269531 30.929688 17.921875 31.011719 C 16.753906 31.324219 15.554688 31.527344 14.386719 31.835938 C 13.652344 32.015625 12.992188 32.34375 12.410156 32.824219 C 11.824219 33.304688 11.375 33.886719 11.0625 34.574219 C 11.035156 34.628906 11.019531 34.683594 11.015625 34.746094 C 11.015625 34.804688 11.027344 34.859375 11.054688 34.914062 C 11.082031 34.96875 11.121094 35.011719 11.171875 35.042969 C 11.222656 35.078125 11.277344 35.097656 11.335938 35.105469 Z M 11.335938 35.105469 " fill-opacity="1" fill-rule="nonzero"/><path fill="#0857de" d="M 8.238281 29.121094 C 6.550781 29.199219 4.855469 29.109375 3.164062 29.160156 C 3.1875 32.929688 3.171875 36.699219 3.171875 40.46875 C 3.199219 40.910156 3.328125 41.320312 3.558594 41.699219 C 3.789062 42.074219 4.089844 42.378906 4.46875 42.609375 C 4.871094 42.835938 5.304688 42.945312 5.769531 42.9375 C 6.230469 42.929688 6.660156 42.808594 7.058594 42.570312 C 7.453125 42.335938 7.765625 42.011719 7.992188 41.609375 C 8.214844 41.203125 8.324219 40.769531 8.316406 40.308594 C 8.320312 36.609375 8.332031 32.90625 8.324219 29.207031 C 8.304688 29.1875 8.261719 29.140625 8.238281 29.121094 Z M 8.238281 29.121094 " fill-opacity="1" fill-rule="nonzero"/><g clip-path="url(#23e180b60c)"><path fill="#0857de" d="M 37.257812 36.792969 C 35.949219 37.136719 34.625 37.402344 33.285156 37.589844 C 31.484375 37.835938 29.683594 38.101562 27.863281 38.183594 C 25.65625 38.304688 23.449219 38.3125 21.242188 38.203125 C 19.351562 38.082031 17.457031 37.949219 15.585938 37.640625 C 14.371094 37.503906 13.171875 37.277344 11.984375 36.96875 C 11.613281 36.847656 11.226562 36.789062 10.835938 36.785156 C 10.691406 36.835938 10.578125 36.921875 10.5 37.050781 C 10.417969 37.179688 10.386719 37.320312 10.402344 37.46875 C 10.386719 38.683594 10.390625 39.902344 10.386719 41.117188 C 10.378906 41.335938 10.445312 41.53125 10.585938 41.699219 C 10.726562 41.867188 10.90625 41.96875 11.125 42 C 13.90625 42.460938 16.707031 42.761719 19.523438 42.902344 C 21.925781 43.03125 24.332031 43 26.738281 42.996094 C 29.925781 42.914062 33.101562 42.644531 36.261719 42.179688 C 36.664062 42.105469 37.078125 42.078125 37.476562 41.96875 C 37.652344 41.925781 37.796875 41.832031 37.910156 41.6875 C 38.019531 41.542969 38.078125 41.382812 38.078125 41.199219 C 38.074219 39.929688 38.09375 38.660156 38.082031 37.390625 C 38.074219 37.292969 38.046875 37.199219 38 37.113281 C 37.953125 37.027344 37.890625 36.957031 37.808594 36.898438 C 37.730469 36.839844 37.640625 36.800781 37.546875 36.785156 C 37.449219 36.765625 37.351562 36.769531 37.257812 36.792969 Z M 37.257812 36.792969 " fill-opacity="1" fill-rule="nonzero"/></g><g clip-path="url(#8cfc46b2e9)"><path fill="#0857de" d="M 42.875 21.394531 C 41.367188 21.511719 40.175781 22.777344 40.175781 24.316406 L 40.175781 26.421875 L 42.875 26.421875 Z M 42.875 21.394531 " fill-opacity="1" fill-rule="nonzero"/></g><path fill="#0857de" d="M 43.585938 26.882812 L 39.464844 26.882812 L 39.464844 33.75 L 43.585938 33.75 Z M 43.585938 26.882812 " fill-opacity="1" fill-rule="nonzero"/><g clip-path="url(#cb2b488145)"><path fill="#0857de" d="M 39.238281 34.207031 L 39.007812 34.207031 L 39.007812 41.988281 L 44.042969 41.988281 L 44.042969 34.207031 Z M 39.238281 34.207031 " fill-opacity="1" fill-rule="nonzero"/></g></svg>