<svg xmlns="http://www.w3.org/2000/svg" xmlns:xlink="http://www.w3.org/1999/xlink" width="60" zoomAndPan="magnify" viewBox="0 0 45 44.999999" height="60" preserveAspectRatio="xMidYMid meet" version="1.0"><defs><clipPath id="d5244b37ca"><path d="M 12.007812 1.210938 L 33.007812 1.210938 L 33.007812 43.53125 L 12.007812 43.53125 Z M 12.007812 1.210938 " clip-rule="nonzero"/></clipPath></defs><rect x="-4.5" width="54" fill="#ffffff" y="-4.5" height="53.999999" fill-opacity="1"/><rect x="-4.5" width="54" fill="#ffffff" y="-4.5" height="53.999999" fill-opacity="1"/><g clip-path="url(#d5244b37ca)"><path fill="#0857de" d="M 21.777344 29.609375 C 18.785156 29.464844 15.910156 28.601562 13.359375 27.113281 C 13.304688 27.078125 13.289062 27.003906 13.328125 26.953125 C 15.660156 23.929688 17.382812 20.796875 17.9375 17.460938 C 17.945312 17.414062 17.984375 17.378906 18.03125 17.371094 C 21.078125 16.953125 24.300781 16.953125 27.347656 17.371094 C 27.394531 17.378906 27.429688 17.414062 27.4375 17.460938 C 27.992188 20.796875 29.71875 23.929688 32.046875 26.953125 C 32.089844 27.003906 32.074219 27.078125 32.019531 27.113281 C 29.46875 28.601562 26.589844 29.464844 23.601562 29.609375 C 23.542969 29.613281 23.5 29.660156 23.5 29.714844 L 23.5 35.398438 C 23.5 35.445312 23.53125 35.488281 23.578125 35.5 C 24.957031 35.851562 26.023438 36.996094 26.265625 38.417969 C 26.636719 40.597656 28.480469 42.15625 30.695312 42.15625 L 32.558594 42.15625 C 33.003906 42.15625 33.367188 42.519531 33.367188 42.964844 C 33.367188 43.414062 33.003906 43.777344 32.558594 43.777344 L 30.695312 43.777344 C 27.695312 43.777344 25.175781 41.644531 24.671875 38.683594 C 24.570312 38.074219 24.1875 37.550781 23.660156 37.257812 C 23.585938 37.21875 23.5 37.269531 23.5 37.351562 L 23.5 42.964844 C 23.5 43.414062 23.136719 43.777344 22.6875 43.777344 C 22.242188 43.777344 21.878906 43.414062 21.878906 42.964844 L 21.878906 37.351562 C 21.878906 37.269531 21.792969 37.21875 21.71875 37.257812 C 21.191406 37.550781 20.808594 38.074219 20.707031 38.683594 C 20.203125 41.644531 17.683594 43.777344 14.683594 43.777344 L 12.820312 43.777344 C 12.375 43.777344 12.011719 43.414062 12.011719 42.964844 C 12.011719 42.519531 12.375 42.15625 12.820312 42.15625 L 14.683594 42.15625 C 16.898438 42.15625 18.742188 40.597656 19.113281 38.417969 C 19.351562 36.996094 20.421875 35.851562 21.796875 35.5 C 21.847656 35.488281 21.878906 35.445312 21.878906 35.398438 L 21.878906 29.714844 C 21.878906 29.660156 21.835938 29.613281 21.777344 29.609375 Z M 27.25 15.429688 C 27.195312 12.410156 28.144531 9.257812 30.480469 5.914062 C 30.523438 5.855469 30.496094 5.777344 30.433594 5.75 L 26.8125 4.355469 C 26.753906 4.335938 26.695312 4.363281 26.671875 4.417969 C 26.011719 6.148438 24.585938 7.628906 22.6875 7.628906 C 20.789062 7.628906 19.367188 6.148438 18.707031 4.417969 C 18.683594 4.363281 18.621094 4.335938 18.566406 4.355469 L 14.945312 5.75 C 14.878906 5.777344 14.855469 5.855469 14.894531 5.914062 C 17.234375 9.257812 18.179688 12.410156 18.125 15.429688 C 18.125 15.492188 18.183594 15.546875 18.246094 15.535156 C 21.164062 15.171875 24.214844 15.171875 27.128906 15.535156 C 27.195312 15.546875 27.253906 15.492188 27.25 15.429688 Z M 37.808594 16.300781 L 37.808594 3.011719 C 37.808594 2.566406 38.171875 2.203125 38.617188 2.203125 C 39.0625 2.203125 39.425781 2.566406 39.425781 3.011719 L 39.425781 21.757812 C 39.425781 21.816406 39.476562 21.867188 39.535156 21.867188 L 45.710938 21.867188 C 45.769531 21.867188 45.820312 21.914062 45.820312 21.972656 L 45.820312 27.585938 C 45.820312 27.636719 45.785156 27.675781 45.738281 27.691406 C 44.359375 28.042969 43.292969 29.183594 43.050781 30.605469 C 42.683594 32.785156 40.835938 34.34375 38.621094 34.34375 L 36.757812 34.34375 C 36.3125 34.34375 35.949219 34.707031 35.949219 35.15625 C 35.949219 35.601562 36.3125 35.964844 36.757812 35.964844 L 38.621094 35.964844 C 41.621094 35.964844 44.144531 33.832031 44.644531 30.871094 C 44.746094 30.261719 45.128906 29.738281 45.660156 29.445312 C 45.730469 29.40625 45.820312 29.460938 45.820312 29.542969 L 45.820312 35.15625 C 45.820312 35.601562 46.179688 35.964844 46.628906 35.964844 C 47.074219 35.964844 47.4375 35.601562 47.4375 35.15625 L 47.4375 29.542969 C 47.4375 29.460938 47.523438 29.40625 47.597656 29.445312 C 48.125 29.738281 48.507812 30.261719 48.613281 30.871094 C 49.113281 33.832031 51.636719 35.964844 54.632812 35.964844 L 56.496094 35.964844 C 56.941406 35.964844 57.304688 35.601562 57.304688 35.15625 C 57.304688 34.707031 56.941406 34.34375 56.496094 34.34375 L 54.632812 34.34375 C 52.417969 34.34375 50.574219 32.785156 50.203125 30.605469 C 49.964844 29.183594 48.894531 28.042969 47.519531 27.691406 C 47.46875 27.675781 47.4375 27.636719 47.4375 27.585938 L 47.4375 21.972656 C 47.4375 21.914062 47.484375 21.867188 47.542969 21.867188 L 53.722656 21.867188 C 53.78125 21.867188 53.828125 21.816406 53.828125 21.757812 L 53.828125 3.011719 C 53.828125 2.566406 54.191406 2.203125 54.636719 2.203125 C 55.085938 2.203125 55.449219 2.566406 55.449219 3.011719 L 55.449219 17.8125 C 55.449219 17.871094 55.496094 17.917969 55.554688 17.917969 L 58.683594 17.917969 C 59.128906 17.917969 59.492188 17.554688 59.492188 17.109375 L 59.492188 -1.1875 L 59.488281 -1.1875 C 59.488281 -1.335938 59.449219 -1.484375 59.363281 -1.617188 L 57.019531 -5.300781 L 56.792969 -5.542969 L 51.214844 -9.449219 C 50.851562 -9.703125 50.648438 -9.640625 50.132812 -9.640625 L 50.132812 -9.636719 C 49.761719 -9.636719 49.425781 -9.382812 49.34375 -9.003906 C 49.035156 -7.601562 48.0625 -6.058594 46.628906 -6.058594 C 45.195312 -6.058594 44.222656 -7.601562 43.910156 -9.003906 C 43.828125 -9.378906 43.492188 -9.636719 43.125 -9.636719 L 43.125 -9.640625 C 42.605469 -9.640625 42.40625 -9.703125 42.039062 -9.449219 L 36.464844 -5.542969 L 36.234375 -5.300781 L 33.890625 -1.617188 C 33.808594 -1.484375 33.765625 -1.335938 33.765625 -1.1875 L 33.761719 -1.1875 L 33.761719 17.109375 C 33.761719 17.554688 34.125 17.917969 34.570312 17.917969 L 37.699219 17.917969 C 37.757812 17.917969 37.808594 17.871094 37.808594 17.8125 Z M 49.300781 -5.382812 L 51.710938 2.308594 C 51.734375 2.378906 51.683594 2.449219 51.609375 2.449219 L 49.535156 2.449219 C 49.464844 2.449219 49.414062 2.515625 49.433594 2.585938 L 51.332031 8.78125 C 51.34375 8.816406 51.335938 8.855469 51.308594 8.882812 L 47.625 13.136719 C 47.5625 13.210938 47.4375 13.164062 47.4375 13.066406 L 47.4375 -4.449219 C 47.4375 -4.5 47.46875 -4.542969 47.515625 -4.554688 C 48.105469 -4.707031 48.648438 -5.011719 49.125 -5.433594 C 49.183594 -5.484375 49.277344 -5.457031 49.300781 -5.382812 Z M 45.628906 13.136719 L 41.945312 8.882812 C 41.921875 8.855469 41.914062 8.816406 41.925781 8.78125 L 43.820312 2.585938 C 43.84375 2.515625 43.792969 2.449219 43.71875 2.449219 L 41.648438 2.449219 C 41.574219 2.449219 41.523438 2.378906 41.542969 2.308594 L 43.957031 -5.382812 C 43.980469 -5.457031 44.070312 -5.484375 44.128906 -5.433594 C 44.609375 -5.011719 45.152344 -4.707031 45.738281 -4.554688 C 45.785156 -4.542969 45.816406 -4.5 45.816406 -4.449219 L 45.816406 13.066406 C 45.820312 13.164062 45.695312 13.210938 45.628906 13.136719 Z M 45.628906 13.136719 " fill-opacity="1" fill-rule="evenodd"/></g></svg>