<svg xmlns="http://www.w3.org/2000/svg" xmlns:xlink="http://www.w3.org/1999/xlink" width="60" zoomAndPan="magnify" viewBox="0 0 45 44.999999" height="60" preserveAspectRatio="xMidYMid meet" version="1.0"><defs><clipPath id="52546c741b"><path d="M 5.1875 20 L 20 20 L 20 42 L 5.1875 42 Z M 5.1875 20 " clip-rule="nonzero"/></clipPath><clipPath id="18ccb8935d"><path d="M 31 3.128906 L 39.6875 3.128906 L 39.6875 12 L 31 12 Z M 31 3.128906 " clip-rule="nonzero"/></clipPath><clipPath id="70a65fa5c3"><path d="M 31.414062 2.078125 L 40.5 2.078125 L 40.5 11.164062 L 31.414062 11.164062 Z M 31.414062 2.078125 " clip-rule="nonzero"/></clipPath><clipPath id="e6266f4420"><path d="M 35.957031 2.078125 C 33.449219 2.078125 31.414062 4.113281 31.414062 6.621094 C 31.414062 9.132812 33.449219 11.164062 35.957031 11.164062 C 38.464844 11.164062 40.5 9.132812 40.5 6.621094 C 40.5 4.113281 38.464844 2.078125 35.957031 2.078125 Z M 35.957031 2.078125 " clip-rule="nonzero"/></clipPath><clipPath id="adc24ea44f"><path d="M 34.113281 4.5 L 37.863281 4.5 L 37.863281 9.75 L 34.113281 9.75 Z M 34.113281 4.5 " clip-rule="nonzero"/></clipPath></defs><rect x="-4.5" width="54" fill="#ffffff" y="-4.5" height="53.999999" fill-opacity="1"/><rect x="-4.5" width="54" fill="#ffffff" y="-4.5" height="53.999999" fill-opacity="1"/><g clip-path="url(#52546c741b)"><path fill="#0857de" d="M 19.421875 20.695312 L 5.554688 20.695312 C 5.363281 20.695312 5.207031 20.851562 5.207031 21.042969 L 5.207031 41.519531 C 5.207031 41.710938 5.363281 41.867188 5.554688 41.867188 L 18.53125 41.867188 C 18.613281 41.867188 18.699219 41.871094 18.78125 41.871094 C 18.945312 41.871094 19.101562 41.871094 19.257812 41.867188 C 19.523438 41.863281 19.632812 41.820312 19.675781 41.792969 C 19.757812 41.738281 19.769531 41.476562 19.769531 41.175781 L 19.769531 21.042969 C 19.769531 20.851562 19.613281 20.695312 19.421875 20.695312 Z M 7.179688 22.0625 C 7.179688 21.796875 7.390625 21.585938 7.65625 21.585938 L 17.046875 21.585938 C 17.3125 21.585938 17.523438 21.796875 17.523438 22.0625 L 17.523438 25.0625 C 17.523438 25.328125 17.3125 25.539062 17.046875 25.539062 L 7.652344 25.539062 C 7.390625 25.539062 7.179688 25.328125 7.179688 25.0625 Z M 9.632812 40.800781 C 9.632812 41.0625 9.421875 41.277344 9.15625 41.277344 L 6.152344 41.277344 C 5.886719 41.277344 5.675781 41.0625 5.675781 40.800781 L 5.675781 37.792969 C 5.675781 37.53125 5.886719 37.316406 6.152344 37.316406 L 9.15625 37.316406 C 9.421875 37.316406 9.632812 37.53125 9.632812 37.792969 Z M 9.632812 35.472656 C 9.632812 35.738281 9.421875 35.949219 9.15625 35.949219 L 6.152344 35.949219 C 5.886719 35.949219 5.675781 35.738281 5.675781 35.472656 L 5.675781 32.46875 C 5.675781 32.207031 5.886719 31.992188 6.152344 31.992188 L 9.15625 31.992188 C 9.421875 31.992188 9.632812 32.207031 9.632812 32.46875 Z M 9.632812 30.152344 C 9.632812 30.414062 9.421875 30.628906 9.15625 30.628906 L 6.152344 30.628906 C 5.886719 30.628906 5.675781 30.414062 5.675781 30.152344 L 5.675781 27.144531 C 5.675781 26.882812 5.886719 26.667969 6.152344 26.667969 L 9.15625 26.667969 C 9.421875 26.667969 9.632812 26.882812 9.632812 27.144531 Z M 14.332031 40.800781 C 14.332031 41.0625 14.117188 41.277344 13.855469 41.277344 L 10.847656 41.277344 C 10.585938 41.277344 10.371094 41.0625 10.371094 40.800781 L 10.371094 37.792969 C 10.371094 37.53125 10.585938 37.316406 10.847656 37.316406 L 13.855469 37.316406 C 14.117188 37.316406 14.332031 37.53125 14.332031 37.792969 Z M 14.332031 35.472656 C 14.332031 35.738281 14.117188 35.949219 13.855469 35.949219 L 10.847656 35.949219 C 10.585938 35.949219 10.371094 35.738281 10.371094 35.472656 L 10.371094 32.46875 C 10.371094 32.207031 10.585938 31.992188 10.847656 31.992188 L 13.855469 31.992188 C 14.117188 31.992188 14.332031 32.207031 14.332031 32.46875 Z M 14.332031 30.152344 C 14.332031 30.414062 14.117188 30.628906 13.855469 30.628906 L 10.847656 30.628906 C 10.585938 30.628906 10.371094 30.414062 10.371094 30.152344 L 10.371094 27.144531 C 10.371094 26.882812 10.585938 26.667969 10.847656 26.667969 L 13.855469 26.667969 C 14.117188 26.667969 14.332031 26.882812 14.332031 27.144531 Z M 15.070312 30.152344 L 15.070312 27.144531 C 15.070312 26.882812 15.28125 26.667969 15.546875 26.667969 L 18.550781 26.667969 C 18.8125 26.667969 19.027344 26.882812 19.027344 27.144531 L 19.027344 30.152344 C 19.027344 30.414062 18.8125 30.628906 18.550781 30.628906 L 15.546875 30.628906 C 15.28125 30.628906 15.070312 30.414062 15.070312 30.152344 Z M 19.335938 40.800781 C 19.335938 41.0625 19.121094 41.277344 18.859375 41.277344 L 15.851562 41.277344 C 15.589844 41.277344 15.375 41.0625 15.375 40.800781 L 15.375 37.792969 C 15.375 37.53125 15.589844 37.316406 15.851562 37.316406 L 18.859375 37.316406 C 19.121094 37.316406 19.335938 37.53125 19.335938 37.792969 Z M 19.335938 35.472656 C 19.335938 35.738281 19.121094 35.949219 18.859375 35.949219 L 15.851562 35.949219 C 15.589844 35.949219 15.375 35.738281 15.375 35.472656 L 15.375 32.46875 C 15.375 32.207031 15.589844 31.992188 15.851562 31.992188 L 18.859375 31.992188 C 19.121094 31.992188 19.335938 32.207031 19.335938 32.46875 Z M 19.335938 35.472656 " fill-opacity="1" fill-rule="nonzero"/></g><path fill="#0857de" d="M 16.019531 27.621094 L 18.074219 27.621094 L 18.074219 29.675781 L 16.019531 29.675781 Z M 16.019531 27.621094 " fill-opacity="1" fill-rule="nonzero"/><path fill="#0857de" d="M 6.628906 27.621094 L 8.679688 27.621094 L 8.679688 29.675781 L 6.628906 29.675781 Z M 6.628906 27.621094 " fill-opacity="1" fill-rule="nonzero"/><path fill="#0857de" d="M 8.210938 34.449219 L 7.097656 34.449219 C 6.859375 34.449219 6.664062 34.273438 6.628906 34.046875 L 6.628906 35 L 8.679688 35 L 8.679688 34.046875 C 8.644531 34.273438 8.449219 34.449219 8.210938 34.449219 Z M 8.210938 34.449219 " fill-opacity="1" fill-rule="nonzero"/><path fill="#0857de" d="M 6.628906 33.898438 C 6.664062 33.667969 6.859375 33.496094 7.097656 33.496094 L 8.210938 33.496094 C 8.449219 33.496094 8.644531 33.667969 8.679688 33.898438 L 8.679688 32.945312 L 6.628906 32.945312 Z M 6.628906 33.898438 " fill-opacity="1" fill-rule="nonzero"/><path fill="#0857de" d="M 11.324219 32.945312 L 13.378906 32.945312 L 13.378906 35 L 11.324219 35 Z M 11.324219 32.945312 " fill-opacity="1" fill-rule="nonzero"/><path fill="#0857de" d="M 6.628906 38.269531 L 8.679688 38.269531 L 8.679688 40.324219 L 6.628906 40.324219 Z M 6.628906 38.269531 " fill-opacity="1" fill-rule="nonzero"/><path fill="#0857de" d="M 11.324219 40.324219 L 13.378906 40.324219 L 13.378906 38.269531 L 11.324219 38.269531 Z M 11.863281 38.875 L 12.835938 38.875 C 13.101562 38.875 13.3125 39.085938 13.3125 39.351562 C 13.3125 39.613281 13.101562 39.828125 12.835938 39.828125 L 11.863281 39.828125 C 11.601562 39.828125 11.390625 39.613281 11.390625 39.351562 C 11.390625 39.085938 11.601562 38.875 11.863281 38.875 Z M 11.863281 38.875 " fill-opacity="1" fill-rule="nonzero"/><path fill="#0857de" d="M 8.128906 22.539062 L 16.570312 22.539062 L 16.570312 24.585938 L 8.128906 24.585938 Z M 8.128906 22.539062 " fill-opacity="1" fill-rule="nonzero"/><path fill="#0857de" d="M 11.324219 29.675781 L 13.378906 29.675781 L 13.378906 27.621094 L 11.324219 27.621094 Z M 11.863281 28.171875 L 11.875 28.171875 L 11.875 28.160156 C 11.875 27.898438 12.089844 27.683594 12.351562 27.683594 C 12.613281 27.683594 12.828125 27.898438 12.828125 28.160156 L 12.828125 28.171875 L 12.835938 28.171875 C 13.101562 28.171875 13.3125 28.382812 13.3125 28.648438 C 13.3125 28.910156 13.101562 29.125 12.835938 29.125 L 12.828125 29.125 L 12.828125 29.132812 C 12.828125 29.398438 12.613281 29.609375 12.351562 29.609375 C 12.089844 29.609375 11.875 29.398438 11.875 29.132812 L 11.875 29.125 L 11.863281 29.125 C 11.601562 29.125 11.390625 28.910156 11.390625 28.648438 C 11.390625 28.382812 11.601562 28.171875 11.863281 28.171875 Z M 11.863281 28.171875 " fill-opacity="1" fill-rule="nonzero"/><path fill="#0857de" d="M 16.328125 35 L 17.734375 35 C 17.816406 34.855469 17.972656 34.761719 18.148438 34.761719 L 18.382812 34.761719 L 18.382812 32.945312 L 16.328125 32.945312 Z M 16.328125 35 " fill-opacity="1" fill-rule="nonzero"/><path fill="#0857de" d="M 16.328125 38.269531 L 18.382812 38.269531 L 18.382812 40.324219 L 16.328125 40.324219 Z M 16.328125 38.269531 " fill-opacity="1" fill-rule="nonzero"/><path fill="#0857de" d="M 32.433594 11.667969 L 15.210938 11.667969 C 14.949219 11.667969 14.734375 11.457031 14.734375 11.191406 L 14.734375 6.996094 C 14.734375 6.730469 14.949219 6.519531 15.210938 6.519531 L 30.65625 6.519531 C 30.71875 6.070312 30.84375 5.636719 31.019531 5.234375 L 12.449219 5.234375 L 12.449219 19.746094 L 19.421875 19.746094 C 20.046875 19.746094 20.570312 20.191406 20.695312 20.78125 L 33.84375 20.78125 C 34.109375 20.78125 34.320312 20.992188 34.320312 21.257812 C 34.320312 21.519531 34.109375 21.734375 33.84375 21.734375 L 20.722656 21.734375 L 20.722656 24.277344 L 33.84375 24.277344 C 34.109375 24.277344 34.320312 24.488281 34.320312 24.753906 C 34.320312 25.015625 34.109375 25.230469 33.84375 25.230469 L 20.722656 25.230469 L 20.722656 27.769531 L 33.84375 27.769531 C 34.109375 27.769531 34.320312 27.984375 34.320312 28.246094 C 34.320312 28.511719 34.109375 28.722656 33.84375 28.722656 L 20.722656 28.722656 L 20.722656 31.265625 L 33.84375 31.265625 C 34.109375 31.265625 34.320312 31.480469 34.320312 31.742188 C 34.320312 32.007812 34.109375 32.21875 33.84375 32.21875 L 20.722656 32.21875 L 20.722656 34.761719 L 33.84375 34.761719 C 34.109375 34.761719 34.320312 34.972656 34.320312 35.238281 C 34.320312 35.5 34.109375 35.714844 33.84375 35.714844 L 20.722656 35.714844 L 20.722656 38.304688 L 35.199219 38.304688 L 35.199219 12.296875 C 34.328125 12.214844 33.523438 11.914062 32.835938 11.449219 C 32.753906 11.582031 32.605469 11.667969 32.433594 11.667969 Z M 33.84375 18.238281 L 13.800781 18.238281 C 13.539062 18.238281 13.324219 18.023438 13.324219 17.761719 C 13.324219 17.5 13.539062 17.285156 13.800781 17.285156 L 33.84375 17.285156 C 34.109375 17.285156 34.320312 17.5 34.320312 17.761719 C 34.320312 18.023438 34.109375 18.238281 33.84375 18.238281 Z M 34.320312 14.265625 C 34.320312 14.527344 34.109375 14.742188 33.84375 14.742188 L 13.800781 14.742188 C 13.539062 14.742188 13.324219 14.527344 13.324219 14.265625 C 13.324219 14.003906 13.539062 13.789062 13.800781 13.789062 L 33.84375 13.789062 C 34.109375 13.789062 34.320312 14.003906 34.320312 14.265625 Z M 34.320312 14.265625 " fill-opacity="1" fill-rule="nonzero"/><path fill="#0857de" d="M 30.355469 7.472656 L 30.355469 8.617188 L 30.792969 8.617188 C 30.6875 8.25 30.625 7.867188 30.609375 7.472656 Z M 30.355469 7.472656 " fill-opacity="1" fill-rule="nonzero"/><path fill="#0857de" d="M 26.316406 7.472656 L 29.402344 7.472656 L 29.402344 8.617188 L 26.316406 8.617188 Z M 26.316406 7.472656 " fill-opacity="1" fill-rule="nonzero"/><path fill="#0857de" d="M 22.28125 7.472656 L 25.363281 7.472656 L 25.363281 8.617188 L 22.28125 8.617188 Z M 22.28125 7.472656 " fill-opacity="1" fill-rule="nonzero"/><path fill="#0857de" d="M 18.246094 7.472656 L 21.328125 7.472656 L 21.328125 8.617188 L 18.246094 8.617188 Z M 18.246094 7.472656 " fill-opacity="1" fill-rule="nonzero"/><path fill="#0857de" d="M 15.6875 7.472656 L 17.292969 7.472656 L 17.292969 8.617188 L 15.6875 8.617188 Z M 15.6875 7.472656 " fill-opacity="1" fill-rule="nonzero"/><path fill="#0857de" d="M 15.6875 9.570312 L 17.292969 9.570312 L 17.292969 10.714844 L 15.6875 10.714844 Z M 15.6875 9.570312 " fill-opacity="1" fill-rule="nonzero"/><path fill="#0857de" d="M 18.246094 9.570312 L 21.328125 9.570312 L 21.328125 10.714844 L 18.246094 10.714844 Z M 18.246094 9.570312 " fill-opacity="1" fill-rule="nonzero"/><path fill="#0857de" d="M 22.28125 9.570312 L 25.363281 9.570312 L 25.363281 10.714844 L 22.28125 10.714844 Z M 22.28125 9.570312 " fill-opacity="1" fill-rule="nonzero"/><path fill="#0857de" d="M 26.316406 9.570312 L 29.402344 9.570312 L 29.402344 10.714844 L 26.316406 10.714844 Z M 26.316406 9.570312 " fill-opacity="1" fill-rule="nonzero"/><path fill="#0857de" d="M 30.355469 10.714844 L 31.957031 10.714844 L 31.957031 10.695312 C 31.644531 10.359375 31.378906 9.980469 31.167969 9.570312 L 30.355469 9.570312 Z M 30.355469 10.714844 " fill-opacity="1" fill-rule="nonzero"/><g clip-path="url(#18ccb8935d)"><path fill="#0857de" d="M 35.675781 3.128906 C 33.472656 3.128906 31.671875 4.863281 31.5625 7.035156 C 31.558594 7.105469 31.554688 7.175781 31.554688 7.246094 C 31.554688 9.519531 33.402344 11.367188 35.675781 11.367188 C 37.945312 11.367188 39.792969 9.519531 39.792969 7.246094 C 39.792969 4.976562 37.945312 3.128906 35.675781 3.128906 Z M 35.425781 6.433594 C 35.546875 6.621094 35.730469 6.742188 35.941406 6.785156 L 35.957031 6.785156 C 35.984375 6.792969 36.011719 6.796875 36.039062 6.804688 C 36.863281 7.011719 37.429688 7.808594 37.351562 8.652344 C 37.3125 9.117188 37.09375 9.539062 36.734375 9.835938 C 36.652344 9.90625 36.5625 9.96875 36.46875 10.019531 L 36.46875 10.355469 C 36.46875 10.617188 36.253906 10.832031 35.992188 10.832031 C 35.730469 10.832031 35.515625 10.617188 35.515625 10.355469 L 35.515625 10.238281 C 35.496094 10.238281 35.480469 10.234375 35.460938 10.234375 C 35.070312 10.199219 34.695312 10.03125 34.414062 9.757812 C 34.222656 9.578125 34.214844 9.273438 34.398438 9.085938 C 34.578125 8.894531 34.882812 8.886719 35.070312 9.070312 C 35.203125 9.195312 35.367188 9.269531 35.546875 9.285156 C 35.757812 9.304688 35.960938 9.238281 36.125 9.105469 C 36.285156 8.96875 36.386719 8.777344 36.40625 8.570312 C 36.4375 8.183594 36.183594 7.824219 35.808594 7.730469 C 35.796875 7.726562 35.789062 7.726562 35.777344 7.722656 L 35.765625 7.71875 C 35.296875 7.628906 34.882812 7.351562 34.625 6.949219 C 34.363281 6.542969 34.28125 6.0625 34.394531 5.59375 C 34.539062 5.007812 34.972656 4.554688 35.515625 4.363281 L 35.515625 4.140625 C 35.515625 3.875 35.730469 3.664062 35.992188 3.664062 C 36.253906 3.664062 36.46875 3.875 36.46875 4.140625 L 36.46875 4.304688 C 36.820312 4.382812 37.136719 4.566406 37.382812 4.835938 C 37.558594 5.03125 37.542969 5.332031 37.347656 5.507812 C 37.152344 5.683594 36.851562 5.667969 36.675781 5.472656 C 36.542969 5.328125 36.359375 5.234375 36.160156 5.21875 C 35.773438 5.183594 35.414062 5.441406 35.324219 5.816406 C 35.269531 6.03125 35.308594 6.25 35.425781 6.433594 Z M 35.425781 6.433594 " fill-opacity="1" fill-rule="nonzero"/></g><g clip-path="url(#70a65fa5c3)"><g clip-path="url(#e6266f4420)"><path fill="#0857de" d="M 31.414062 2.078125 L 40.5 2.078125 L 40.5 11.164062 L 31.414062 11.164062 Z M 31.414062 2.078125 " fill-opacity="1" fill-rule="nonzero"/></g></g><g clip-path="url(#adc24ea44f)"><path fill="#ffffff" d="M 36.683594 5.117188 L 37.601562 5.117188 L 37.792969 4.503906 L 34.304688 4.503906 L 34.113281 5.117188 L 35.339844 5.117188 C 35.808594 5.117188 36.207031 5.425781 36.351562 5.847656 L 34.304688 5.847656 L 34.113281 6.460938 L 36.375 6.460938 C 36.253906 6.921875 35.839844 7.265625 35.339844 7.265625 L 34.113281 7.265625 L 34.113281 7.738281 L 36.375 10.023438 L 37.179688 10.023438 L 37.179688 9.949219 L 35.03125 7.800781 C 35.21875 7.800781 35.445312 7.800781 35.492188 7.800781 C 36.289062 7.800781 36.945312 7.222656 37.074219 6.460938 L 37.601562 6.460938 L 37.792969 5.847656 L 37.0625 5.847656 C 37.003906 5.570312 36.867188 5.324219 36.683594 5.117188 Z M 36.683594 5.117188 " fill-opacity="1" fill-rule="nonzero"/></g></svg>